<svg width="149" height="44" viewBox="0 0 149 44" fill="none" xmlns="http://www.w3.org/2000/svg">
<rect x="1.28955" y="0.5" width="146.789" height="42.5158" rx="5.24737" fill="black"/>
<path d="M57.6167 29.4271H52.9661L51.8372 32.5228H49.7935L54.3409 20.9575H56.2709L60.9215 32.5228H58.7826L57.6167 29.4271ZM53.5583 27.845H57.0218L55.7818 24.5331C55.6126 24.0769 55.4434 23.5707 55.2795 23.0169C55.1288 23.5074 54.9649 24.0057 54.7904 24.5173L53.5583 27.845Z" fill="white"/>
<path d="M61.7436 26.0178C61.7436 25.3797 61.7225 24.6765 61.6802 23.9083H63.5309C63.6004 24.2699 63.6481 24.6353 63.6736 25.0026C63.9975 24.6155 64.4014 24.303 64.8578 24.0863C65.3142 23.8696 65.8121 23.754 66.3175 23.7474C66.9101 23.7381 67.492 23.9052 67.9889 24.2274C68.4857 24.5497 68.875 25.0123 69.1068 25.5563C69.432 26.3042 69.5865 27.1148 69.5589 27.9295C69.579 28.8178 69.3983 29.6992 69.0301 30.5084C68.7221 31.1799 68.2193 31.7439 67.5866 32.1274C66.9356 32.5026 66.1941 32.6932 65.4424 32.6785C64.8509 32.6781 64.2636 32.5783 63.7054 32.3832V35.9509L61.7278 36.1196L61.7436 26.0178ZM66.9415 30.4134C67.3433 29.8861 67.5469 29.095 67.5469 28.0403C67.5469 27.0787 67.3795 26.3755 67.0446 25.9308C66.8933 25.7241 66.6939 25.5571 66.4637 25.4441C66.2335 25.3311 65.9792 25.2755 65.7226 25.2821C65.3532 25.2772 64.9888 25.368 64.6651 25.5458C64.3213 25.74 64.0085 25.9844 63.7371 26.2709V30.8854C63.9562 30.9885 64.187 31.0646 64.4245 31.1122C64.6799 31.1673 64.9405 31.1956 65.2018 31.1966C65.5337 31.2164 65.8655 31.1555 66.1685 31.0191C66.4716 30.8826 66.7368 30.6748 66.9415 30.4134Z" fill="white"/>
<path d="M70.7617 26.0178C70.7617 25.3797 70.7405 24.6765 70.6982 23.9083H72.5489C72.6207 24.2696 72.6692 24.6351 72.6944 25.0026C73.4646 24.1658 74.3459 23.7474 75.3382 23.7474C75.9308 23.7381 76.5127 23.9052 77.0096 24.2274C77.5064 24.5497 77.8957 25.0123 78.1275 25.5563C78.4527 26.3042 78.6071 27.1148 78.5796 27.9295C78.6038 28.8168 78.4276 29.6982 78.064 30.5084C77.7553 31.1803 77.2515 31.7443 76.6178 32.1274C75.967 32.503 75.2254 32.6936 74.4737 32.6785C73.8821 32.6781 73.2949 32.5783 72.7367 32.3832V35.9509L70.759 36.1196L70.7617 26.0178ZM75.9675 30.4134C76.3693 29.8738 76.5702 29.0827 76.5702 28.0403C76.5702 27.0787 76.4037 26.3755 76.0706 25.9308C75.9193 25.7241 75.7199 25.5571 75.4897 25.4441C75.2594 25.3311 75.0051 25.2755 74.7486 25.2821C74.3792 25.2777 74.0149 25.3685 73.6911 25.5458C73.3473 25.74 73.0345 25.9844 72.7631 26.2709V30.8854C72.9825 30.9877 73.2132 31.0638 73.4505 31.1122C73.7059 31.1673 73.9664 31.1956 74.2278 31.1966C74.5596 31.216 74.8912 31.1548 75.1942 31.0184C75.4972 30.8821 75.7625 30.6745 75.9675 30.4134Z" fill="white"/>
<path d="M82.2151 31.9771C81.3702 31.5149 80.684 30.8103 80.2454 29.9546C79.7661 28.9876 79.5301 27.9188 79.558 26.8404C79.5238 25.6867 79.7975 24.5447 80.3512 23.5312C80.8512 22.6517 81.6022 21.9403 82.5086 21.4876C83.4612 21.0234 84.5101 20.7894 85.5702 20.8047C86.2131 20.8019 86.854 20.8762 87.4791 21.0262C88.0637 21.1634 88.6312 21.3651 89.1711 21.6274L88.6582 23.1436C87.723 22.6731 86.6941 22.4172 85.6469 22.3947C84.9077 22.3824 84.1782 22.5643 83.5318 22.9221C82.9184 23.2732 82.4255 23.8007 82.1173 24.4356C81.7629 25.1887 81.5908 26.0142 81.615 26.8457C81.6018 27.5949 81.7328 28.3396 82.001 29.0396C82.2444 29.6591 82.6726 30.1893 83.2277 30.5584C83.8602 30.9531 84.5974 31.1479 85.3428 31.1174C85.7291 31.1165 86.1146 31.0839 86.4956 31.0199C86.8641 30.9614 87.2262 30.8678 87.5769 30.7404V28.3883H84.896V26.8563H89.499V31.7318C88.8312 32.0422 88.1318 32.28 87.413 32.4411C86.7002 32.6049 85.9712 32.6881 85.2397 32.689C84.187 32.7142 83.1455 32.4691 82.2151 31.9771Z" fill="white"/>
<path d="M96.5238 32.5227C96.449 32.1461 96.4031 31.7644 96.3864 31.3809C96.0561 31.7642 95.6525 32.0779 95.1992 32.3038C94.6875 32.5623 94.1204 32.6927 93.5468 32.6835C93.0775 32.6894 92.6129 32.5894 92.1879 32.3908C91.7835 32.2017 91.4455 31.8958 91.2176 31.5128C90.965 31.0786 90.8395 30.5826 90.8554 30.0809C90.8406 29.7004 90.9148 29.3217 91.0722 28.9748C91.2296 28.6279 91.4658 28.3223 91.7622 28.0822C92.365 27.5829 93.3706 27.3342 94.7789 27.336C95.3035 27.3357 95.8274 27.3727 96.3467 27.4467V27.2779C96.3467 26.5185 96.1845 25.9824 95.8602 25.6695C95.4725 25.3367 94.9693 25.1691 94.459 25.2027C94.0018 25.2083 93.5472 25.2703 93.1053 25.3873C92.6676 25.4926 92.2409 25.6391 91.831 25.825L91.519 24.3906C91.9673 24.1997 92.433 24.0523 92.9097 23.9502C93.5091 23.815 94.122 23.7478 94.7366 23.7498C95.3878 23.7321 96.0357 23.8478 96.6402 24.09C97.1718 24.3244 97.6048 24.7366 97.8643 25.2555C98.1887 25.9502 98.3402 26.7127 98.3058 27.4783V30.9063C98.3058 31.2579 98.327 31.7975 98.3693 32.5253L96.5238 32.5227ZM95.3394 30.9406C95.7205 30.7639 96.0628 30.5139 96.3467 30.2049V28.6227C95.9078 28.571 95.4666 28.542 95.0248 28.5357C94.2087 28.5357 93.6438 28.6676 93.33 28.9313C93.177 29.0602 93.0553 29.2222 92.9743 29.4049C92.8932 29.5876 92.8548 29.7863 92.8621 29.986C92.8478 30.1585 92.8708 30.3321 92.9296 30.495C92.9885 30.6579 93.0818 30.8062 93.2031 30.93C93.4609 31.1468 93.7919 31.2571 94.1285 31.2385C94.5496 31.2322 94.9637 31.1303 95.3394 30.9406Z" fill="white"/>
<path d="M99.834 30.4554V20.2771L101.801 20.1189V30.1047C101.773 30.3819 101.839 30.6605 101.989 30.8958C102.064 30.9768 102.157 31.0396 102.261 31.0793C102.364 31.1191 102.476 31.1348 102.586 31.1252C102.766 31.1174 102.943 31.0873 103.115 31.0355L103.348 32.4489C103.126 32.5322 102.897 32.5923 102.663 32.6282C102.411 32.6719 102.155 32.6948 101.899 32.6968C100.522 32.688 99.834 31.9408 99.834 30.4554Z" fill="white"/>
<path d="M104.754 30.4554V20.2771L106.724 20.1189V30.1047C106.696 30.3819 106.762 30.6605 106.912 30.8958C106.987 30.9768 107.08 31.0396 107.184 31.0793C107.288 31.1191 107.399 31.1348 107.509 31.1252C107.689 31.1174 107.866 31.0873 108.038 31.0355L108.268 32.4489C108.048 32.5323 107.819 32.5924 107.586 32.6282C107.333 32.672 107.076 32.6949 106.819 32.6968C105.444 32.688 104.756 31.9408 104.754 30.4554Z" fill="white"/>
<path d="M116.358 28.4673H110.708C110.798 30.2727 111.66 31.1753 113.294 31.1753C113.713 31.1732 114.131 31.1236 114.539 31.0277C114.956 30.9309 115.364 30.7986 115.758 30.6321L116.191 31.9822C115.173 32.4607 114.059 32.7006 112.934 32.6836C112.128 32.7068 111.329 32.5254 110.613 32.1563C109.992 31.8217 109.494 31.2991 109.19 30.6638C108.855 29.9278 108.692 29.1252 108.714 28.317C108.693 27.4701 108.865 26.6294 109.219 25.8594C109.521 25.206 110.01 24.6557 110.623 24.2773C111.252 23.9079 111.972 23.7198 112.701 23.7341C113.426 23.7086 114.14 23.9086 114.745 24.3063C115.291 24.6841 115.714 25.213 115.961 25.8278C116.234 26.4974 116.368 27.2147 116.358 27.9373V28.4673ZM114.43 27.2148C114.434 26.6549 114.248 26.1103 113.902 25.6696C113.747 25.4962 113.555 25.3591 113.341 25.268C113.126 25.1768 112.895 25.1339 112.662 25.1422C112.427 25.1374 112.195 25.1818 111.979 25.2727C111.763 25.3636 111.569 25.4988 111.409 25.6696C111.036 26.1028 110.808 26.641 110.756 27.2095L114.43 27.2148Z" fill="white"/>
<path d="M117.854 26.0729C117.854 25.6009 117.83 24.8784 117.788 23.9107H119.639C119.671 24.1506 119.7 24.4381 119.731 24.7677C119.763 25.0973 119.779 25.3715 119.789 25.5798C119.989 25.2437 120.215 24.9245 120.466 24.6253C120.685 24.3695 120.948 24.1559 121.244 23.9951C121.554 23.8278 121.903 23.7433 122.256 23.7498C122.524 23.7433 122.791 23.7762 123.049 23.8474L122.801 25.5561C122.491 25.4667 122.166 25.444 121.847 25.4894C121.528 25.5349 121.222 25.6475 120.95 25.8198C120.513 26.1442 120.131 26.5379 119.821 26.9853V32.5227H117.854V26.0729Z" fill="white"/>
<path d="M124.15 36.0484C123.909 36.0095 123.671 35.9522 123.438 35.877L123.798 34.4399C123.964 34.4845 124.133 34.5206 124.303 34.548C124.493 34.5817 124.686 34.5994 124.879 34.6007C125.761 34.6007 126.416 34.0391 126.846 32.9158L126.976 32.5967L123.79 23.9109H125.905L127.523 28.7654C127.73 29.3898 127.898 30.0265 128.026 30.6718C128.176 30.0495 128.351 29.4272 128.554 28.8049L130.167 23.9109H132.158L128.985 32.6363C128.746 33.3391 128.42 34.0096 128.015 34.6324C127.706 35.1028 127.285 35.4889 126.788 35.7557C126.256 36.0147 125.669 36.1414 125.078 36.1249C124.767 36.1261 124.456 36.1005 124.15 36.0484Z" fill="white"/>
<path d="M49.7935 9.94629H53.3098L53.212 10.7954H50.8193V12.4381H53.0745V13.2292H50.8193V15.0486H53.3389L53.2516 15.9109H49.7935V9.94629Z" fill="white"/>
<path d="M55.7395 12.8679L53.8888 9.94629H55.0627L56.3212 12.0927L57.6431 9.94629H58.7826L56.9319 12.831L58.9333 15.9109H57.7436L56.3185 13.5641L54.867 15.9109H53.7275L55.7395 12.8679Z" fill="white"/>
<path d="M59.6919 9.94629H61.3046C62.0608 9.94629 62.6407 10.1001 63.0443 10.4077C63.2451 10.5653 63.4047 10.7689 63.5097 11.0012C63.6146 11.2335 63.6618 11.4876 63.6471 11.742C63.6583 12.1053 63.5667 12.4645 63.3827 12.7783C63.2032 13.0733 62.9414 13.3097 62.6292 13.4586C62.2824 13.6221 61.9023 13.7033 61.5188 13.6959C61.2525 13.6922 60.9871 13.6648 60.7256 13.6142V15.9109H59.6919V9.94629ZM62.2829 12.6095C62.3957 12.5015 62.4836 12.3703 62.5407 12.2251C62.5977 12.0799 62.6225 11.9241 62.6134 11.7684C62.6268 11.6191 62.6032 11.4689 62.5447 11.331C62.4861 11.193 62.3944 11.0715 62.2776 10.9773C61.98 10.7966 61.6338 10.7118 61.2861 10.7347H60.7256V12.8442C60.9221 12.8795 61.121 12.8998 61.3205 12.9049C61.6671 12.9308 62.0108 12.8253 62.2829 12.6095Z" fill="white"/>
<path d="M64.668 9.94629H65.6991V15.0302H68.1737L68.0865 15.9109H64.668V9.94629Z" fill="white"/>
<path d="M69.7441 15.6178C69.3107 15.3746 68.9607 15.0071 68.7394 14.5631C68.4989 14.0708 68.3801 13.5283 68.393 12.9809C68.3804 12.4089 68.5074 11.8424 68.7632 11.3303C68.9976 10.8686 69.3662 10.4882 69.8207 10.2386C70.3296 9.97279 70.8991 9.84374 71.4731 9.86416C72.0159 9.84963 72.553 9.97785 73.0304 10.236C73.4611 10.48 73.8083 10.8475 74.0271 11.2907C74.2629 11.7778 74.3798 12.3136 74.3682 12.8544C74.3825 13.4328 74.2545 14.0058 73.9954 14.5235C73.7587 14.9836 73.3907 15.3634 72.9378 15.6152C72.4379 15.8804 71.878 16.013 71.3119 16.0001C70.7645 16.014 70.2233 15.882 69.7441 15.6178ZM72.4196 14.8874C72.7111 14.6948 72.9377 14.4191 73.07 14.0963C73.2184 13.7268 73.2912 13.3314 73.2842 12.9335C73.2908 12.5428 73.2263 12.1541 73.0938 11.7864C72.9752 11.4679 72.7633 11.1923 72.4857 10.9954C72.1638 10.7989 71.7937 10.6949 71.4163 10.6949C71.0389 10.6949 70.6688 10.7989 70.3469 10.9954C70.0546 11.1976 69.8269 11.4796 69.6912 11.8075C69.5407 12.1618 69.466 12.5435 69.4717 12.9282C69.4654 13.3245 69.5354 13.7184 69.678 14.0884C69.8046 14.4269 70.0362 14.7163 70.3391 14.9146C70.6419 15.1128 71.0003 15.2095 71.3621 15.1906C71.7374 15.1998 72.1065 15.094 72.4196 14.8874Z" fill="white"/>
<path d="M75.5181 9.94613H77.3899C77.9383 9.90741 78.4841 10.0512 78.9419 10.3548C79.1175 10.4924 79.2573 10.6701 79.3493 10.873C79.4414 11.0759 79.483 11.298 79.4706 11.5203C79.4768 11.8095 79.4115 12.0957 79.2803 12.3536C79.1656 12.5797 79.0054 12.7799 78.8097 12.9416C78.6347 13.0825 78.4384 13.1946 78.228 13.2739L80.0787 15.9107H78.8758L77.3185 13.5375H76.5597V15.9107H75.5181V9.94613ZM77.1388 12.7676C77.3684 12.7726 77.5959 12.7229 77.8024 12.6225C77.9883 12.5335 78.1451 12.3936 78.2545 12.2191C78.3636 12.0329 78.4194 11.8204 78.4157 11.6047C78.4264 11.4803 78.4059 11.3551 78.356 11.2405C78.3062 11.1259 78.2286 11.0254 78.1302 10.9481C77.8823 10.7934 77.5918 10.7205 77.3 10.7398H76.5518V12.7781L77.1388 12.7676Z" fill="white"/>
<path d="M80.8853 9.94629H84.4095L84.3091 10.7954H81.9296V12.4381H84.1636V13.2292H81.9084V15.0486H84.428L84.3514 15.9109H80.8853V9.94629Z" fill="white"/>
<path d="M88.2432 9.94629H89.2743V15.9109H88.2432V9.94629Z" fill="white"/>
<path d="M92.0055 10.8059H90.1548L90.2447 9.94629H94.8979L94.8027 10.8059H93.0392V15.9109H92.0055V10.8059Z" fill="white"/>
<path d="M99.3794 15.6178C98.9468 15.3745 98.5977 15.007 98.3774 14.5631C98.1347 14.0716 98.0149 13.5287 98.0284 12.981C98.0157 12.409 98.1427 11.8425 98.3985 11.3303C98.6336 10.8691 99.002 10.4889 99.456 10.2386C99.961 9.97152 100.527 9.83892 101.098 9.85365C101.647 9.8389 102.19 9.97091 102.671 10.236C103.102 10.4793 103.45 10.8469 103.668 11.2907C103.904 11.7776 104.022 12.3134 104.011 12.8544C104.026 13.4331 103.897 14.0065 103.636 14.5235C103.4 14.9842 103.032 15.3642 102.578 15.6152C102.079 15.8811 101.519 16.0137 100.952 16.0002C100.403 16.0149 99.8602 15.8829 99.3794 15.6178ZM102.058 14.8874C102.348 14.6939 102.573 14.4185 102.705 14.0964C102.854 13.7268 102.927 13.3315 102.92 12.9335C102.926 12.5428 102.862 12.1542 102.729 11.7865C102.612 11.4682 102.401 11.1925 102.124 10.9954C101.801 10.7987 101.431 10.6946 101.053 10.6946C100.675 10.6946 100.305 10.7987 99.9822 10.9954C99.6899 11.1977 99.4623 11.4796 99.3265 11.8076C99.1773 12.1622 99.1026 12.5437 99.1071 12.9282C99.1007 13.3246 99.1707 13.7185 99.3133 14.0885C99.4394 14.4137 99.6593 14.6945 99.9452 14.8953C100.258 15.1014 100.628 15.2046 101.003 15.1907C101.377 15.1983 101.745 15.0926 102.058 14.8874Z" fill="white"/>
<path d="M105.156 9.94629H106.341L109.299 14.5687C109.273 14.1284 109.262 13.7249 109.262 13.3531V9.94629H110.219V15.9109H109.072L106.068 11.2146C106.097 11.742 106.113 12.2193 106.113 12.6333V15.9109H105.156V9.94629Z" fill="white"/>
<path fill-rule="evenodd" clip-rule="evenodd" d="M35.2522 9.97778H24.2775C19.1035 9.97778 17.2104 11.8658 17.2104 17.0261V27.9797C17.2104 33.14 19.1035 35.028 24.2775 35.028H35.2522C40.4262 35.028 42.3219 33.14 42.3219 27.9797V17.0261C42.3272 11.8658 40.4342 9.97778 35.2522 9.97778Z" fill="#C8102E"/>
<path d="M22.1838 22.5027H22.8501V25.7803H22.1838V24.4487H20.6794V25.7803H20.0132V22.5027H20.6794V23.8211H22.1838V22.5027ZM25.9381 24.3775C25.9381 24.9049 25.6737 25.1949 25.1925 25.1949C24.7113 25.1949 24.4417 24.9049 24.4417 24.3485V22.5027H23.7754V24.3749C23.7754 25.2951 24.2883 25.8225 25.1819 25.8225C26.0756 25.8225 26.6043 25.2951 26.6043 24.3459V22.5027H25.9381V24.3775ZM33.637 24.7546L32.8914 22.5027H32.3442L31.6039 24.7572L30.8768 22.5027H30.1683L31.3131 25.7803H31.8656L32.6086 23.6286L33.3541 25.7803H33.912L35.0568 22.5027H34.3641L33.637 24.7546ZM36.2492 24.367H37.4627V23.7737H36.2492V23.1039H38.01V22.5027H35.5935V25.7724H38.0734V25.1817H36.2492V24.367ZM38.8666 25.7724H39.5249V22.5027H38.8666V25.7724ZM27.921 25.0947L27.6222 25.775H26.9428L28.3784 22.5027H28.9653L30.4062 25.775H29.7188L29.4359 25.0974L27.921 25.0947ZM28.1695 24.5041H29.1715L28.6692 23.3333L28.1695 24.5041Z" fill="white"/>
<path d="M29.7688 18.3339C28.6604 18.3332 27.5977 17.8938 26.8139 17.1121C26.0302 16.3304 25.5896 15.2705 25.5889 14.165H26.1784C26.1784 15.1147 26.5567 16.0255 27.23 16.6971C27.9034 17.3686 28.8166 17.7459 29.7688 17.7459C30.721 17.7459 31.6343 17.3686 32.3076 16.6971C32.9809 16.0255 33.3592 15.1147 33.3592 14.165H33.9488C33.9481 15.2705 33.5075 16.3304 32.7237 17.1121C31.94 17.8938 30.8772 18.3332 29.7688 18.3339Z" fill="white"/>
<rect x="1.28955" y="0.5" width="146.789" height="42.5158" rx="5.24737" stroke="#3B374D"/>
</svg>
