<svg width="148" height="44" viewBox="0 0 148 44" fill="none" xmlns="http://www.w3.org/2000/svg">
<rect x="0.5" y="0.5" width="146.789" height="42.5158" rx="5.24737" fill="black"/>
<path d="M33.5127 21.8178C33.5251 20.8605 33.7812 19.9218 34.2571 19.0891C34.733 18.2565 35.4133 17.5569 36.2347 17.0555C35.7129 16.3155 35.0245 15.7065 34.2243 15.2769C33.424 14.8473 32.5339 14.6089 31.6246 14.5806C29.685 14.3785 27.8046 15.7332 26.8162 15.7332C25.8087 15.7332 24.2869 14.6007 22.6482 14.6342C21.5882 14.6682 20.5552 14.9743 19.6498 15.5226C18.7443 16.0709 17.9974 16.8428 17.4817 17.763C15.2478 21.6036 16.9141 27.248 19.054 30.3524C20.1246 31.8726 21.3758 33.5706 23.0131 33.5104C24.6152 33.4444 25.2136 32.4959 27.1475 32.4959C29.0635 32.4959 29.6249 33.5104 31.2953 33.4721C33.0145 33.4444 34.0977 31.9452 35.1307 30.4107C35.9 29.3275 36.4919 28.1304 36.8846 26.8636C35.8858 26.4441 35.0335 25.742 34.4339 24.8447C33.8342 23.9474 33.5139 22.8947 33.5127 21.8178Z" fill="white"/>
<path d="M30.3574 12.5391C31.2948 11.4217 31.7566 9.98546 31.6447 8.5354C30.2127 8.68476 28.8898 9.36442 27.9398 10.439C27.4753 10.9639 27.1195 11.5746 26.8929 12.2361C26.6662 12.8977 26.573 13.5971 26.6187 14.2944C27.335 14.3017 28.0437 14.1476 28.6913 13.8435C29.3389 13.5395 29.9085 13.0935 30.3574 12.5391Z" fill="white"/>
<path d="M53.7646 29.662H48.2972L46.9842 33.5118H44.6685L49.8471 19.2686H52.2531L57.4317 33.5118H55.0764L53.7646 29.662ZM48.8634 27.8855H53.1972L51.0608 21.6376H51.001L48.8634 27.8855Z" fill="white"/>
<path d="M68.6159 28.3202C68.6159 31.5472 66.8766 33.6205 64.2517 33.6205C63.5868 33.6551 62.9255 33.503 62.3436 33.1817C61.7617 32.8604 61.2827 32.3828 60.9614 31.8037H60.9117V36.9472H58.7651V23.1274H60.8429V24.8546H60.8824C61.2185 24.2783 61.7056 23.8032 62.292 23.4799C62.8783 23.1567 63.5419 22.9973 64.2122 23.0188C66.8664 23.0188 68.6159 25.1022 68.6159 28.3202ZM66.4096 28.3202C66.4096 26.2178 65.3154 24.8356 63.646 24.8356C62.0059 24.8356 60.9027 26.2469 60.9027 28.3202C60.9027 30.4126 62.0059 31.8138 63.646 31.8138C65.3154 31.8138 66.4096 30.4417 66.4096 28.3202Z" fill="white"/>
<path d="M80.1262 28.3202C80.1262 31.5472 78.3868 33.6205 75.762 33.6205C75.0971 33.6551 74.4358 33.503 73.8539 33.1817C73.272 32.8604 72.7929 32.3828 72.4716 31.8037H72.422V36.9472H70.2754V23.1274H72.3531V24.8546H72.3926C72.7287 24.2783 73.2158 23.8032 73.8022 23.4799C74.3885 23.1567 75.0521 22.9973 75.7225 23.0188C78.3767 23.0188 80.1262 25.1021 80.1262 28.3202ZM77.9198 28.3202C77.9198 26.2178 76.8257 24.8356 75.1562 24.8356C73.5161 24.8356 72.413 26.2469 72.413 28.3202C72.413 30.4126 73.5161 31.8138 75.1562 31.8138C76.8257 31.8138 77.9198 30.4417 77.9198 28.3202H77.9198Z" fill="white"/>
<path d="M87.733 29.5432C87.8921 30.9557 89.2739 31.8831 91.1621 31.8831C92.9714 31.8831 94.2731 30.9557 94.2731 29.6821C94.2731 28.5765 93.488 27.9146 91.6291 27.4609L89.7702 27.0162C87.1363 26.3845 85.9136 25.1613 85.9136 23.1765C85.9136 20.719 88.0703 19.031 91.1328 19.031C94.1636 19.031 96.2414 20.719 96.3114 23.1765H94.1445C94.0148 21.7551 92.8315 20.8971 91.1023 20.8971C89.3731 20.8971 88.1898 21.7652 88.1898 23.0287C88.1898 24.0356 88.9456 24.6282 90.7943 25.0818L92.3746 25.4671C95.3176 26.1582 96.5403 27.3321 96.5403 29.4155C96.5403 32.0802 94.4028 33.7491 91.003 33.7491C87.8221 33.7491 85.6744 32.1194 85.5356 29.5431L87.733 29.5432Z" fill="white"/>
<path d="M101.173 20.6699V23.1274H103.162V24.8154H101.173V30.5403C101.173 31.4296 101.572 31.8441 102.446 31.8441C102.682 31.84 102.917 31.8235 103.152 31.7948V33.4727C102.759 33.5456 102.359 33.5786 101.96 33.5713C99.8423 33.5713 99.0166 32.7816 99.0166 30.7676V24.8154H97.4961V23.1274H99.0166V20.6699H101.173Z" fill="white"/>
<path d="M104.313 28.3202C104.313 25.0529 106.251 22.9998 109.273 22.9998C112.305 22.9998 114.234 25.0529 114.234 28.3202C114.234 31.5966 112.315 33.6407 109.273 33.6407C106.232 33.6407 104.313 31.5965 104.313 28.3202ZM112.047 28.3202C112.047 26.0789 111.013 24.7561 109.273 24.7561C107.534 24.7561 106.501 26.089 106.501 28.3202C106.501 30.5705 107.534 31.8833 109.273 31.8833C111.013 31.8833 112.047 30.5705 112.047 28.3202H112.047Z" fill="white"/>
<path d="M116.004 23.1276H118.051V24.8951H118.101C118.239 24.343 118.565 23.8552 119.023 23.5135C119.481 23.1718 120.044 22.9972 120.616 23.0189C120.864 23.018 121.11 23.0447 121.352 23.0984V25.0922C121.039 24.9975 120.714 24.9539 120.387 24.9634C120.075 24.9508 119.765 25.0054 119.476 25.1234C119.187 25.2415 118.928 25.4201 118.715 25.6471C118.503 25.874 118.342 26.144 118.245 26.4384C118.147 26.7328 118.115 27.0447 118.15 27.3526V33.512H116.004L116.004 23.1276Z" fill="white"/>
<path d="M131.249 30.4619C130.96 32.347 129.111 33.6407 126.746 33.6407C123.704 33.6407 121.815 31.6167 121.815 28.3695C121.815 25.1123 123.714 22.9998 126.656 22.9998C129.549 22.9998 131.368 24.9734 131.368 28.122V28.8523H123.982V28.9811C123.948 29.3633 123.996 29.7483 124.124 30.1106C124.251 30.4728 124.454 30.804 124.72 31.0822C124.987 31.3604 125.309 31.5792 125.667 31.7241C126.025 31.869 126.409 31.9366 126.796 31.9225C127.303 31.9697 127.812 31.853 128.247 31.5899C128.682 31.3267 129.02 30.9311 129.211 30.4619L131.249 30.4619ZM123.992 27.3626H129.221C129.24 27.0189 129.187 26.675 129.067 26.3525C128.946 26.03 128.759 25.7357 128.518 25.4882C128.277 25.2408 127.987 25.0454 127.667 24.9144C127.346 24.7834 127.002 24.7196 126.656 24.727C126.306 24.7249 125.96 24.7916 125.636 24.9232C125.313 25.0548 125.019 25.2487 124.771 25.4937C124.523 25.7388 124.327 26.0301 124.194 26.3508C124.06 26.6716 123.992 27.0155 123.992 27.3626V27.3626Z" fill="white"/>
<path d="M48.5949 8.54756C49.045 8.51549 49.4966 8.583 49.9171 8.74523C50.3377 8.90745 50.7168 9.16034 51.027 9.48565C51.3372 9.81096 51.5709 10.2006 51.7111 10.6264C51.8513 11.0523 51.8947 11.5037 51.8379 11.9482C51.8379 14.1346 50.6479 15.3914 48.5949 15.3914H46.1055V8.54756H48.5949ZM47.1759 14.4236H48.4754C48.7969 14.4427 49.1188 14.3903 49.4174 14.2703C49.716 14.1503 49.9839 13.9657 50.2017 13.7299C50.4194 13.4942 50.5814 13.2131 50.676 12.9073C50.7705 12.6015 50.7952 12.2786 50.7483 11.9621C50.7918 11.6469 50.7646 11.326 50.6686 11.0224C50.5726 10.7189 50.4102 10.4402 50.1929 10.2063C49.9757 9.97235 49.7091 9.78905 49.4121 9.6695C49.1152 9.54994 48.7953 9.49708 48.4754 9.51471H47.1759V14.4236Z" fill="white"/>
<path d="M53.0468 12.8067C53.0141 12.4673 53.0532 12.1249 53.1616 11.8013C53.2699 11.4778 53.4452 11.1804 53.6762 10.928C53.9071 10.6757 54.1886 10.4741 54.5026 10.3362C54.8166 10.1982 55.1562 10.127 55.4996 10.127C55.8429 10.127 56.1825 10.1982 56.4965 10.3362C56.8105 10.4741 57.092 10.6757 57.323 10.928C57.5539 11.1804 57.7292 11.4778 57.8376 11.8013C57.946 12.1249 57.9851 12.4673 57.9524 12.8067C57.9857 13.1465 57.9471 13.4894 57.839 13.8135C57.7309 14.1375 57.5557 14.4355 57.3247 14.6884C57.0937 14.9412 56.812 15.1432 56.4976 15.2814C56.1833 15.4197 55.8433 15.4911 55.4996 15.4911C55.1558 15.4911 54.8158 15.4197 54.5015 15.2814C54.1872 15.1432 53.9055 14.9412 53.6745 14.6884C53.4435 14.4355 53.2683 14.1375 53.1602 13.8135C53.0521 13.4894 53.0134 13.1465 53.0468 12.8067ZM56.8966 12.8067C56.8966 11.6872 56.3901 11.0325 55.5013 11.0325C54.609 11.0325 54.1071 11.6872 54.1071 12.8068C54.1071 13.9353 54.6091 14.5849 55.5013 14.5849C56.3901 14.5849 56.8966 13.9308 56.8966 12.8067H56.8966Z" fill="white"/>
<path d="M64.4737 15.3914H63.4088L62.3339 11.5875H62.2527L61.1822 15.3914H60.1275L58.6938 10.2266H59.735L60.6667 14.1676H60.7434L61.8127 10.2266H62.7975L63.8668 14.1676H63.948L64.8752 10.2266H65.9017L64.4737 15.3914Z" fill="white"/>
<path d="M67.1074 10.2266H68.0955V11.0471H68.1722C68.3024 10.7524 68.5218 10.5054 68.8001 10.3404C69.0783 10.1755 69.4014 10.1008 69.7244 10.1269C69.9774 10.108 70.2315 10.1459 70.4679 10.2378C70.7042 10.3296 70.9167 10.4731 71.0896 10.6576C71.2625 10.8421 71.3913 11.0629 71.4667 11.3035C71.542 11.5442 71.5618 11.7986 71.5246 12.0479V15.3913H70.4982V12.3038C70.4982 11.4739 70.135 11.0611 69.3758 11.0611C69.204 11.0531 69.0325 11.0822 68.873 11.1462C68.7135 11.2103 68.5699 11.3078 68.4519 11.4321C68.334 11.5564 68.2445 11.7046 68.1896 11.8665C68.1347 12.0283 68.1157 12.2001 68.1339 12.3699V15.3914H67.1074L67.1074 10.2266Z" fill="white"/>
<path d="M73.1602 8.21045H74.1866V15.3914H73.1602V8.21045Z" fill="white"/>
<path d="M75.6136 12.8068C75.581 12.4674 75.6201 12.1249 75.7285 11.8014C75.8369 11.4779 76.0122 11.1804 76.2432 10.9281C76.4742 10.6757 76.7557 10.4741 77.0697 10.3362C77.3837 10.1982 77.7233 10.127 78.0667 10.127C78.4101 10.127 78.7497 10.1982 79.0637 10.3362C79.3778 10.4741 79.6593 10.6757 79.8902 10.9281C80.1212 11.1804 80.2965 11.4779 80.4049 11.8014C80.5134 12.1249 80.5525 12.4674 80.5198 12.8068C80.5531 13.1466 80.5144 13.4896 80.4063 13.8136C80.2981 14.1377 80.1229 14.4357 79.8919 14.6885C79.6609 14.9413 79.3791 15.1433 79.0648 15.2815C78.7505 15.4198 78.4105 15.4912 78.0667 15.4912C77.7229 15.4912 77.383 15.4198 77.0686 15.2815C76.7543 15.1433 76.4726 14.9413 76.2415 14.6885C76.0105 14.4357 75.8353 14.1377 75.7272 13.8136C75.619 13.4896 75.5803 13.1466 75.6136 12.8068ZM79.4634 12.8068C79.4634 11.6873 78.957 11.0326 78.0681 11.0326C77.1759 11.0326 76.674 11.6873 76.674 12.8069C76.674 13.9354 77.1759 14.585 78.0681 14.585C78.957 14.585 79.4635 13.9309 79.4635 12.8068H79.4634Z" fill="white"/>
<path d="M81.6001 13.9308C81.6001 13.0011 82.2972 12.4652 83.5346 12.389L84.9434 12.3083V11.8626C84.9434 11.3171 84.5802 11.009 83.8786 11.009C83.3056 11.009 82.9086 11.2179 82.7946 11.5831H81.8009C81.9058 10.696 82.7461 10.127 83.926 10.127C85.23 10.127 85.9654 10.7716 85.9654 11.8626V15.3914H84.9773V14.6656H84.8961C84.7312 14.926 84.4997 15.1382 84.2253 15.2807C83.9508 15.4232 83.6432 15.4907 83.3338 15.4765C83.1155 15.4991 82.8948 15.476 82.686 15.4086C82.4772 15.3413 82.2849 15.2313 82.1216 15.0856C81.9583 14.94 81.8275 14.762 81.7376 14.5631C81.6478 14.3642 81.601 14.1488 81.6001 13.9308ZM84.9434 13.4895V13.0577L83.6733 13.1383C82.9571 13.1859 82.6322 13.4279 82.6322 13.8832C82.6322 14.348 83.0383 14.6186 83.5967 14.6186C83.7603 14.635 83.9255 14.6186 84.0826 14.5703C84.2397 14.522 84.3854 14.4429 84.5111 14.3375C84.6367 14.2322 84.7398 14.1028 84.814 13.9571C84.8883 13.8115 84.9323 13.6524 84.9434 13.4895Z" fill="white"/>
<path d="M87.3145 12.8068C87.3145 11.1748 88.1593 10.141 89.4734 10.141C89.7985 10.1261 90.1211 10.2034 90.4035 10.3639C90.686 10.5243 90.9166 10.7613 91.0684 11.0471H91.1451V8.21045H92.1716V15.3914H91.188V14.5754H91.1068C90.9432 14.8593 90.7045 15.0933 90.4166 15.2522C90.1287 15.411 89.8026 15.4886 89.4734 15.4766C88.1503 15.4766 87.3145 14.4427 87.3145 12.8068ZM88.3748 12.8068C88.3748 13.9023 88.8948 14.5615 89.7645 14.5615C90.6296 14.5615 91.1643 13.8928 91.1643 12.8113C91.1643 11.7349 90.624 11.0567 89.7645 11.0567C88.9004 11.0567 88.3748 11.7203 88.3748 12.8068H88.3748Z" fill="white"/>
<path d="M96.4188 12.8067C96.3861 12.4673 96.4252 12.1249 96.5336 11.8013C96.642 11.4778 96.8173 11.1804 97.0482 10.928C97.2792 10.6757 97.5607 10.4741 97.8747 10.3362C98.1887 10.1982 98.5283 10.127 98.8716 10.127C99.215 10.127 99.5546 10.1982 99.8686 10.3362C100.183 10.4741 100.464 10.6757 100.695 10.928C100.926 11.1804 101.101 11.4778 101.21 11.8013C101.318 12.1249 101.357 12.4673 101.324 12.8067C101.358 13.1465 101.319 13.4894 101.211 13.8135C101.103 14.1375 100.928 14.4355 100.697 14.6884C100.466 14.9412 100.184 15.1432 99.8697 15.2814C99.5554 15.4197 99.2154 15.4911 98.8716 15.4911C98.5279 15.4911 98.1879 15.4197 97.8736 15.2814C97.5593 15.1432 97.2775 14.9412 97.0465 14.6884C96.8155 14.4355 96.6404 14.1375 96.5322 13.8135C96.4241 13.4894 96.3855 13.1465 96.4188 12.8067ZM100.269 12.8067C100.269 11.6872 99.7622 11.0325 98.8733 11.0325C97.9811 11.0325 97.4792 11.6872 97.4792 12.8068C97.4792 13.9353 97.9811 14.5849 98.8733 14.5849C99.7622 14.5849 100.269 13.9308 100.269 12.8067Z" fill="white"/>
<path d="M102.702 10.2266H103.69V11.0471H103.766C103.897 10.7524 104.116 10.5054 104.394 10.3404C104.673 10.1755 104.996 10.1008 105.319 10.1269C105.572 10.108 105.826 10.1459 106.062 10.2378C106.298 10.3296 106.511 10.4731 106.684 10.6576C106.857 10.8421 106.986 11.0629 107.061 11.3035C107.136 11.5442 107.156 11.7986 107.119 12.0479V15.3913H106.092V12.3038C106.092 11.4739 105.729 11.0611 104.97 11.0611C104.798 11.0531 104.627 11.0822 104.467 11.1462C104.308 11.2103 104.164 11.3078 104.046 11.4321C103.928 11.5564 103.839 11.7046 103.784 11.8665C103.729 12.0283 103.71 12.2001 103.728 12.3699V15.3914H102.702V10.2266Z" fill="white"/>
<path d="M112.919 8.94067V10.2501H114.046V11.1086H112.919V13.7644C112.919 14.3054 113.143 14.5423 113.654 14.5423C113.785 14.5419 113.916 14.534 114.046 14.5188V15.3678C113.861 15.4006 113.674 15.418 113.487 15.4199C112.346 15.4199 111.891 15.0211 111.891 14.0254V11.1086H111.065V10.25H111.891V8.94067H112.919Z" fill="white"/>
<path d="M115.448 8.21045H116.465V11.0566H116.546C116.683 10.7592 116.908 10.5108 117.192 10.3452C117.476 10.1796 117.804 10.105 118.132 10.1314C118.384 10.1178 118.636 10.1596 118.869 10.2537C119.103 10.3478 119.313 10.4919 119.484 10.6758C119.655 10.8597 119.783 11.0789 119.859 11.3176C119.935 11.5563 119.957 11.8088 119.924 12.0569V15.3914H118.896V12.3083C118.896 11.4834 118.509 11.0656 117.784 11.0656C117.607 11.0512 117.43 11.0753 117.264 11.1362C117.098 11.197 116.947 11.2932 116.822 11.4179C116.698 11.5426 116.602 11.6929 116.542 11.8582C116.482 12.0235 116.459 12.1999 116.474 12.375V15.3914H115.448L115.448 8.21045Z" fill="white"/>
<path d="M125.909 13.9968C125.77 14.4688 125.467 14.8771 125.055 15.1502C124.643 15.4234 124.148 15.544 123.655 15.491C123.313 15.4999 122.972 15.4348 122.657 15.3C122.343 15.1652 122.061 14.964 121.833 14.7103C121.604 14.4567 121.434 14.1567 121.334 13.8311C121.233 13.5056 121.206 13.1623 121.253 12.8251C121.207 12.4869 121.235 12.1429 121.335 11.8164C121.435 11.4898 121.604 11.1885 121.832 10.9326C122.059 10.6767 122.339 10.4724 122.653 10.3333C122.967 10.1943 123.307 10.1239 123.651 10.1268C125.098 10.1268 125.971 11.1086 125.971 12.7305V13.0861H122.298V13.1432C122.282 13.3328 122.306 13.5236 122.369 13.7033C122.431 13.8831 122.531 14.048 122.661 14.1873C122.792 14.3266 122.95 14.4373 123.126 14.5123C123.302 14.5873 123.492 14.625 123.683 14.6229C123.929 14.6521 124.178 14.6082 124.398 14.4967C124.618 14.3852 124.8 14.2112 124.921 13.9967L125.909 13.9968ZM122.298 12.3323H124.925C124.938 12.1589 124.915 11.9848 124.856 11.8211C124.797 11.6574 124.704 11.5078 124.584 11.3818C124.463 11.2558 124.317 11.1562 124.156 11.0895C123.994 11.0227 123.82 10.9903 123.645 10.9943C123.468 10.9921 123.291 11.0252 123.127 11.0917C122.962 11.1581 122.813 11.2566 122.688 11.3813C122.562 11.506 122.463 11.6544 122.396 11.8177C122.329 11.981 122.296 12.156 122.298 12.3323H122.298Z" fill="white"/>
<rect x="0.5" y="0.5" width="146.789" height="42.5158" rx="5.24737" stroke="#3B374D"/>
</svg>
