<svg width="148" height="45" viewBox="0 0 148 45" fill="none" xmlns="http://www.w3.org/2000/svg">
<rect x="0.5" y="1.01587" width="146.789" height="42.5158" rx="5.24737" fill="black"/>
<path d="M77.3849 16.8117C76.4866 16.8117 75.7293 16.4962 75.1304 15.8749C74.5365 15.2711 74.2049 14.4387 74.2198 13.5888C74.2198 12.6818 74.5266 11.914 75.1304 11.3052C75.7268 10.684 76.4841 10.3684 77.3824 10.3684C78.2708 10.3684 79.0281 10.684 79.6368 11.3052C80.2407 11.9339 80.5475 12.7017 80.5475 13.5888C80.5376 14.4983 80.2308 15.2661 79.6368 15.8725C79.0404 16.4986 78.2832 16.8117 77.3849 16.8117ZM50.6558 16.8117C49.7773 16.8117 49.0151 16.5011 48.3915 15.8874C47.7728 15.2761 47.4585 14.5033 47.4585 13.5913C47.4585 12.6794 47.7728 11.9066 48.3915 11.2953C49.0027 10.6815 49.7649 10.3709 50.6558 10.3709C51.0913 10.3709 51.5145 10.4579 51.9204 10.6343C52.3188 10.8058 52.643 11.0393 52.883 11.3251L52.9424 11.3972L52.2718 12.0581L52.2025 11.9761C51.8238 11.5239 51.3165 11.3027 50.6459 11.3027C50.047 11.3027 49.5249 11.5164 49.0943 11.9389C48.6612 12.3638 48.4409 12.9204 48.4409 13.5938C48.4409 14.2672 48.6612 14.8238 49.0943 15.2487C49.5249 15.6712 50.047 15.8849 50.6459 15.8849C51.2844 15.8849 51.8214 15.6712 52.2396 15.2487C52.4871 15.0003 52.6405 14.6524 52.6949 14.2125H50.5444V13.2832H53.618L53.6304 13.3677C53.6526 13.5242 53.6749 13.6857 53.6749 13.8348C53.6749 14.6921 53.4175 15.3854 52.9078 15.8973C52.3287 16.5036 51.5714 16.8117 50.6558 16.8117ZM86.1948 16.68H85.247L82.3441 12.0159L82.3689 12.8558V16.6776H81.4211V10.5026H82.5025L82.5322 10.5498L85.2618 14.9431L85.2371 14.1057V10.5026H86.1948V16.68V16.68ZM70.2627 16.68H69.3026V11.4319H67.6371V10.5026H71.9257V11.4319H70.2603V16.68H70.2627ZM66.8551 16.68H65.8974V10.5026H66.8551V16.68ZM61.4726 16.68H60.5149V11.4319H58.8495V10.5026H63.1381V11.4319H61.4726V16.68ZM58.2432 16.6701H54.5707V10.5026H58.2432V11.4319H55.5309V13.1266H57.9784V14.0461H55.5309V15.7408H58.2432V16.6701ZM75.8332 15.2363C76.2614 15.6662 76.7811 15.8824 77.3849 15.8824C78.006 15.8824 78.5133 15.6712 78.9365 15.2363C79.3572 14.8139 79.57 14.2598 79.57 13.5913C79.57 12.9229 79.3572 12.3663 78.939 11.9463C78.5109 11.5164 77.9887 11.3002 77.3873 11.3002C76.7662 11.3002 76.2589 11.5115 75.8382 11.9463C75.4175 12.3687 75.2047 12.9229 75.2047 13.5913C75.2047 14.2598 75.415 14.8164 75.8332 15.2363Z" fill="white"/>
<path fill-rule="evenodd" clip-rule="evenodd" d="M74.131 25.3053C71.7924 25.3053 69.8967 27.0869 69.8967 29.5445C69.8967 31.9797 71.8047 33.7837 74.131 33.7837C76.4696 33.7837 78.3652 31.9896 78.3652 29.5445C78.3652 27.0869 76.4696 25.3053 74.131 25.3053ZM74.131 32.1039C72.8515 32.1039 71.7503 31.0404 71.7503 29.5346C71.7503 28.0063 72.854 26.9652 74.131 26.9652C75.4104 26.9652 76.5116 28.0063 76.5116 29.5346C76.5141 31.0503 75.4104 32.1039 74.131 32.1039ZM64.8929 25.3053C62.5543 25.3053 60.6587 27.0869 60.6587 29.5445C60.6587 31.9797 62.5667 33.7837 64.8929 33.7837C67.2315 33.7837 69.1271 31.9896 69.1271 29.5445C69.1271 27.0869 67.229 25.3053 64.8929 25.3053ZM64.8929 32.1039C63.6135 32.1039 62.5122 31.0404 62.5122 29.5346C62.5122 28.0063 63.6159 26.9652 64.8929 26.9652C66.1723 26.9652 67.2735 28.0063 67.2735 29.5346C67.2735 31.0503 66.1723 32.1039 64.8929 32.1039ZM53.9002 26.5999V28.394H58.1889C58.0577 29.4004 57.7261 30.1434 57.2188 30.6528C56.5902 31.2839 55.6202 31.9698 53.9101 31.9698C51.2746 31.9698 49.2132 29.8327 49.2132 27.1863C49.2132 24.5399 51.2746 22.4029 53.9101 22.4029C55.3331 22.4029 56.37 22.967 57.1396 23.6876L58.4067 22.4153C57.3376 21.3866 55.9147 20.5989 53.92 20.5989C50.3045 20.5989 47.2705 23.5559 47.2705 27.1764C47.2705 30.8068 50.302 33.7539 53.92 33.7539C55.8726 33.7539 57.3376 33.1128 58.4958 31.9051C59.6762 30.7199 60.0499 29.0475 60.0499 27.6982C60.0499 27.2783 60.0177 26.9006 59.9509 26.58H53.8978C53.9002 26.5775 53.9002 26.5999 53.9002 26.5999ZM98.8631 27.9964C98.5093 27.0447 97.4402 25.2953 95.2476 25.2953C93.0748 25.2953 91.2683 27.0124 91.2683 29.5346C91.2683 31.9151 93.055 33.7738 95.458 33.7738C97.3882 33.7738 98.5117 32.5885 98.9745 31.8927L97.5417 30.9286C97.0665 31.6368 96.4058 32.1015 95.4679 32.1015C94.52 32.1015 93.8568 31.6691 93.4163 30.8168L99.0611 28.4685C99.0611 28.471 98.8631 27.9964 98.8631 27.9964ZM93.107 29.4128C93.0624 27.7753 94.374 26.9428 95.3119 26.9428C96.0519 26.9428 96.6681 27.3081 96.8784 27.8399L93.107 29.4128ZM88.5214 33.5203H90.3749V21.066H88.5214V33.5203ZM85.4775 26.247H85.4107C84.9924 25.7476 84.198 25.2953 83.1834 25.2953C81.0774 25.2953 79.1373 27.1565 79.1373 29.547C79.1373 31.9275 81.0675 33.7663 83.1834 33.7663C84.1857 33.7663 84.9924 33.3116 85.4107 32.8022H85.4775V33.411C85.4775 35.0287 84.6163 35.9009 83.228 35.9009C82.0921 35.9009 81.3868 35.0808 81.0997 34.395L79.4887 35.0709C79.9515 36.1891 81.1863 37.5732 83.2255 37.5732C85.3983 37.5732 87.2395 36.2885 87.2395 33.1551V25.5488H85.4874V26.247C85.4898 26.247 85.4775 26.247 85.4775 26.247ZM83.3492 32.1039C82.0698 32.1039 81.0007 31.0305 81.0007 29.547C81.0007 28.0511 82.0698 26.9677 83.3492 26.9677C84.6163 26.9677 85.5987 28.0635 85.5987 29.547C85.6111 31.0305 84.6188 32.1039 83.3492 32.1039ZM107.542 21.066H103.11V33.5203H104.963V28.804H107.544C109.596 28.804 111.613 27.3106 111.613 24.94C111.613 22.5694 109.603 21.066 107.542 21.066ZM107.596 27.0646H104.961V22.7906H107.596C108.985 22.7906 109.769 23.9411 109.769 24.9276C109.769 25.9041 108.975 27.0646 107.596 27.0646ZM119.042 25.2829C117.696 25.2829 116.307 25.8818 115.733 27.1863L117.376 27.8722C117.73 27.1863 118.379 26.9528 119.064 26.9528C120.024 26.9528 120.994 27.5292 121.017 28.558V28.6897C120.685 28.5008 119.958 28.2126 119.086 28.2126C117.312 28.2126 115.513 29.1867 115.513 31.0131C115.513 32.6854 116.968 33.7589 118.589 33.7589C119.834 33.7589 120.519 33.1948 120.947 32.5413H121.014V33.5054H122.801V28.7344C122.801 26.5129 121.158 25.2829 119.042 25.2829ZM118.809 32.1039C118.203 32.1039 117.354 31.8058 117.354 31.0404C117.354 30.0763 118.413 29.711 119.317 29.711C120.133 29.711 120.519 29.8874 121.004 30.1309C120.871 31.2491 119.93 32.094 118.809 32.1039ZM129.319 25.5488L127.191 30.9509H127.124L124.919 25.5488H122.925L126.233 33.1004L124.348 37.2974H126.278L131.368 25.5488H129.319ZM112.635 33.5203H114.488V21.066H112.635V33.5203Z" fill="white"/>
<path fill-rule="evenodd" clip-rule="evenodd" d="M16.8738 11.1337C16.5867 11.4444 16.4209 11.919 16.4209 12.5402V34.5738C16.4209 35.195 16.5867 35.6696 16.8837 35.9678L16.9604 36.0349L29.2547 23.6899V23.4141L16.9505 11.0667L16.8738 11.1337Z" fill="url(#paint0_linear_834_14708)"/>
<path fill-rule="evenodd" clip-rule="evenodd" d="M33.3452 27.8174L29.2446 23.6999V23.4117L33.3452 19.2942L33.4343 19.3489L38.2848 22.117C39.6731 22.9023 39.6731 24.1994 38.2848 24.9945L33.4343 27.7627L33.3452 27.8174Z" fill="url(#paint1_linear_834_14708)"/>
<path fill-rule="evenodd" clip-rule="evenodd" d="M33.4342 27.7628L29.2446 23.5559L16.8735 35.9779C17.3264 36.4649 18.0861 36.5196 18.935 36.045L33.4342 27.7628Z" fill="url(#paint2_linear_834_14708)"/>
<path fill-rule="evenodd" clip-rule="evenodd" d="M33.4342 19.349L18.935 11.0793C18.0861 10.5923 17.3239 10.6594 16.8735 11.1464L29.2446 23.556L33.4342 19.349Z" fill="url(#paint3_linear_834_14708)"/>
<path opacity="0.2" fill-rule="evenodd" clip-rule="evenodd" d="M33.3456 27.6733L18.9452 35.8884C18.1409 36.3531 17.4233 36.3207 16.9605 35.8983L16.8838 35.9753L16.9605 36.0424C17.4233 36.4624 18.1409 36.4972 18.9452 36.0325L33.4446 27.7628L33.3456 27.6733Z" fill="black"/>
<path opacity="0.12" fill-rule="evenodd" clip-rule="evenodd" d="M38.2849 24.8505L33.333 27.6734L33.4221 27.7628L38.2725 24.9947C38.9679 24.5971 39.3094 24.0753 39.3094 23.5559C39.2673 24.033 38.9135 24.4853 38.2849 24.8505Z" fill="black"/>
<path opacity="0.25" fill-rule="evenodd" clip-rule="evenodd" d="M18.9352 11.2234L38.2849 22.2613C38.9135 22.6166 39.2673 23.0813 39.3218 23.5559C39.3218 23.0366 38.9803 22.5147 38.2849 22.1172L18.9352 11.0793C17.5469 10.2816 16.4209 10.9476 16.4209 12.5404V12.6845C16.4209 11.0892 17.5469 10.4357 18.9352 11.2234Z" fill="white"/>
<rect x="0.5" y="1.01587" width="146.789" height="42.5158" rx="5.24737" stroke="#3B374D"/>
<defs>
<linearGradient id="paint0_linear_834_14708" x1="28.1519" y1="12.3025" x2="8.44785" y2="17.5311" gradientUnits="userSpaceOnUse">
<stop stop-color="#00A0FF"/>
<stop offset="0.00657" stop-color="#00A1FF"/>
<stop offset="0.2601" stop-color="#00BEFF"/>
<stop offset="0.5122" stop-color="#00D2FF"/>
<stop offset="0.7604" stop-color="#00DFFF"/>
<stop offset="1" stop-color="#00E3FF"/>
</linearGradient>
<linearGradient id="paint1_linear_834_14708" x1="40.0953" y1="23.5558" x2="16.0832" y2="23.5558" gradientUnits="userSpaceOnUse">
<stop stop-color="#FFE000"/>
<stop offset="0.4087" stop-color="#FFBD00"/>
<stop offset="0.7754" stop-color="#FFA500"/>
<stop offset="1" stop-color="#FF9C00"/>
</linearGradient>
<linearGradient id="paint2_linear_834_14708" x1="31.1561" y1="25.8451" x2="15.2501" y2="52.5064" gradientUnits="userSpaceOnUse">
<stop stop-color="#FF3A44"/>
<stop offset="1" stop-color="#C31162"/>
</linearGradient>
<linearGradient id="paint3_linear_834_14708" x1="13.7584" y1="3.80527" x2="20.8547" y2="15.7127" gradientUnits="userSpaceOnUse">
<stop stop-color="#32A071"/>
<stop offset="0.0685" stop-color="#2DA771"/>
<stop offset="0.4762" stop-color="#15CF74"/>
<stop offset="0.8009" stop-color="#06E775"/>
<stop offset="1" stop-color="#00F076"/>
</linearGradient>
</defs>
</svg>
