<svg width="210" height="41" viewBox="0 0 210 41" fill="none" xmlns="http://www.w3.org/2000/svg">
<g clip-path="url(#clip0_829_129506)">
<path fill-rule="evenodd" clip-rule="evenodd" d="M80.5465 17.1006C81.6724 16.0739 81.7077 14.5487 81.7077 13.5222V0.734482H86.3516V14.0501C86.3516 15.7813 86.0699 17.7164 84.2055 19.3002C81.7419 21.4121 77.9082 21.5 75.6567 21.5C73.4051 21.5 69.5707 21.4124 67.1078 19.3002C65.2434 17.7164 64.9619 15.7806 64.9619 14.0501V0.734482H69.6056V13.5222C69.6056 14.6661 69.6408 16.0445 70.8018 17.1006C72.1035 18.2738 74.2144 18.4204 75.6567 18.4204C76.9937 18.4204 79.2803 18.2738 80.5465 17.1006ZM89.8697 21.2652V3.81406C89.8697 3.05146 89.8697 2.23034 90.7139 1.52624C91.5231 0.851724 92.6497 0.734482 93.4932 0.734482H105.208C106.51 0.734482 108.585 0.734482 110.098 1.96626C111.787 3.31552 111.963 5.63249 111.963 7.36303C111.963 9.03465 111.752 11.6744 109.817 12.9949C108.902 13.6107 107.495 13.992 106.052 13.992H94.5141V21.2652H89.8697ZM103.344 10.9118C104.364 10.9118 105.56 10.9118 106.369 10.1494C107.108 9.44531 107.178 8.12565 107.178 7.33368C107.178 6.42446 107.073 5.19268 106.298 4.51816C105.489 3.84343 104.187 3.81406 103.414 3.81406H95.921C95.6043 3.81406 95.1823 3.78469 94.8306 4.07813C94.5141 4.34109 94.5141 4.69412 94.5141 5.04585V10.9118H103.344H103.344ZM117.944 21.2652C117.135 21.2652 116.22 21.1187 115.658 20.7373C115.382 20.5475 115.158 20.293 115.004 19.9964C114.851 19.6998 114.773 19.3702 114.778 19.0365V0.734482H119.421V17.0709C119.421 17.3057 119.386 17.6871 119.738 17.951C119.879 18.0386 120.16 18.1859 120.899 18.1859H134.408V21.2652H117.944H117.944ZM156.151 2.67014C158.719 4.72327 158.965 8.30205 158.965 10.9999C158.965 13.6977 158.683 17.2765 156.151 19.3295C153.477 21.5 149.186 21.5 146.336 21.5C143.416 21.5 139.229 21.5 136.52 19.3295C133.671 17.0425 133.671 13.3171 133.671 10.9999C133.671 8.21352 133.847 4.782 136.52 2.67014C139.265 0.500657 143.346 0.500659 146.336 0.500659C149.256 0.500001 153.442 0.5 156.151 2.67014ZM139.968 16.7192C141.41 18.2738 143.732 18.4204 146.3 18.4204C148.833 18.4204 151.19 18.2738 152.668 16.7192C153.477 15.8685 154.181 14.3142 154.181 10.9997C154.181 7.45092 153.441 6.04294 152.668 5.25097C151.226 3.75533 148.798 3.57935 146.3 3.57935C143.732 3.57935 141.41 3.75467 139.968 5.25097C139.018 6.24827 138.455 7.86137 138.455 10.9997C138.456 14.3435 139.159 15.8685 139.968 16.7192H139.968ZM168.605 2.81698C169.485 1.08577 170.434 0.5 172.651 0.5C174.762 0.5 175.817 1.08642 176.696 2.81698L185.984 21.2652H181.094L178.561 16.0739H166.705L164.208 21.2652H159.318L168.605 2.81698ZM167.901 13.3171H177.365L173.355 4.9582C173.214 4.66476 172.967 4.10771 172.651 4.10771C172.334 4.10771 172.088 4.66476 171.947 4.9582L167.901 13.3171ZM190.805 21.2652C188.975 21.2652 188.237 20.8255 188.061 20.7081C187.603 20.4148 187.041 19.7989 187.041 18.6552V4.0194C187.041 3.25679 187.076 2.37584 187.885 1.61433C188.237 1.29176 189.047 0.734482 190.523 0.734482H200.163C203.575 0.734482 205.897 1.81966 207.375 3.16891C209.767 5.36864 209.872 8.30162 209.872 10.7652C209.872 12.9943 209.696 16.5139 207.691 18.7431C206.707 19.828 204.666 21.2652 200.796 21.2652H190.805ZM191.686 16.7778C191.686 17.1885 191.649 17.5697 192.001 17.8925C192.318 18.1859 192.776 18.1859 193.197 18.1859H198.545C201.115 18.1859 202.8 17.7164 203.857 16.2794C204.456 15.4875 205.089 13.9625 205.089 10.4722C205.089 8.71251 204.914 6.65916 203.364 5.31035C201.959 4.07856 199.741 3.8145 198.087 3.8145H193.268C192.986 3.8145 192.494 3.8145 192.177 4.01983C192.018 4.1393 191.892 4.29485 191.806 4.47343C191.721 4.65201 191.678 4.84845 191.686 5.04628V16.7782V16.7778ZM149.194 10.534L145.09 8.02572L145.022 7.98408C144.951 7.95034 144.873 7.9331 144.794 7.93368C144.699 7.922 144.603 7.94735 144.525 8.00447C144.448 8.06159 144.396 8.14612 144.38 8.24047V13.5362C144.396 13.6306 144.448 13.7151 144.525 13.7722C144.603 13.8294 144.699 13.8547 144.794 13.843C144.876 13.8438 144.956 13.8252 145.029 13.7889L145.085 13.7547L149.194 11.2434C149.263 11.2117 149.319 11.1615 149.359 11.0987C149.399 11.0359 149.421 10.9631 149.421 10.8887C149.421 10.8143 149.399 10.7415 149.359 10.6787C149.319 10.6159 149.263 10.5657 149.194 10.534Z" fill="white"/>
<path fill-rule="evenodd" clip-rule="evenodd" d="M18.8436 19.0365C18.1402 20.5906 17.5076 21.5 15.3281 21.5C12.9725 21.5 12.41 20.3268 11.8123 19.0365L5.51938 5.34033C5.41387 5.10563 5.13272 4.66559 4.92192 4.66559C4.53504 4.66559 4.53504 5.19372 4.53504 5.2816L4.64055 21.2663H0V3.19825C0 0.529146 3.26956 0.5 3.97253 0.5C6.82004 0.5 7.62875 1.70241 8.29677 3.13953L14.6597 16.8357C14.8709 17.2757 15.1171 17.5982 15.3281 17.5982C15.5391 17.5982 15.7849 17.2757 15.9959 16.8357L22.3591 3.13953C23.4142 0.822575 24.9255 0.5 26.6831 0.5C28.9692 0.5 30.6559 1.32111 30.6559 3.19825V21.2651H26.0153L26.156 5.2805C26.156 4.72323 25.8746 4.6645 25.7339 4.6645C25.488 4.6645 25.2419 5.10453 25.1363 5.33923L18.8436 19.0365ZM34.1723 21.2652V0.734479H38.8128V21.2651H34.1723V21.2652ZM58.5359 21.2652L51.9617 13.5799L45.3873 21.2651H39.868L49.325 10.853L40.1491 0.734479H45.6687L51.9617 8.12556L58.2546 0.734479H63.774L54.5984 10.853L64.0554 21.2651H58.5359V21.2652Z" fill="#E81943"/>
</g>
<path d="M3.9502 38.5H0.585938V31.4541H3.8623C4.55566 31.4541 5.09928 31.6104 5.49316 31.9229C5.88704 32.2354 6.08398 32.665 6.08398 33.2119C6.08398 33.6025 5.95215 33.9411 5.68848 34.2275C5.42806 34.514 5.10091 34.6849 4.70703 34.7402V34.7793C5.1888 34.8021 5.59245 34.973 5.91797 35.292C6.24674 35.611 6.41113 36.0033 6.41113 36.4688C6.41113 37.0872 6.18815 37.5804 5.74219 37.9482C5.29948 38.3161 4.70215 38.5 3.9502 38.5ZM2.37793 32.7236V34.3252H3.30078C3.6263 34.3252 3.88021 34.2536 4.0625 34.1104C4.24805 33.9639 4.34082 33.7637 4.34082 33.5098C4.34082 33.2624 4.25618 33.0703 4.08691 32.9336C3.9209 32.7936 3.68815 32.7236 3.38867 32.7236H2.37793ZM2.37793 37.2305H3.44238C3.81348 37.2305 4.09668 37.1523 4.29199 36.9961C4.49056 36.8366 4.58984 36.6087 4.58984 36.3125C4.58984 36.026 4.48893 35.8047 4.28711 35.6484C4.08529 35.4922 3.80046 35.4141 3.43262 35.4141H2.37793V37.2305ZM12.1971 37.0547V38.5H7.36797V31.4541H12.1971V32.8994H9.15996V34.3008H12.0164V35.6191H9.15996V37.0547H12.1971ZM13.1832 36.459H14.8873C14.9199 36.6966 15.0549 36.8903 15.2926 37.04C15.5335 37.1898 15.8215 37.2646 16.1568 37.2646C16.5019 37.2646 16.7802 37.1963 16.9918 37.0596C17.2034 36.9196 17.3092 36.7422 17.3092 36.5273C17.3092 36.332 17.2262 36.1807 17.0602 36.0732C16.8974 35.9626 16.6142 35.8649 16.2105 35.7803L15.2877 35.5996C14.6399 35.4759 14.15 35.2432 13.818 34.9014C13.4859 34.5563 13.3199 34.1152 13.3199 33.5781C13.3199 32.901 13.5803 32.3574 14.1012 31.9473C14.6253 31.5371 15.2991 31.332 16.1227 31.332C16.9951 31.332 17.6803 31.529 18.1783 31.9229C18.6796 32.3135 18.9352 32.8424 18.9449 33.5098H17.2945C17.2783 33.2559 17.1643 33.0557 16.9527 32.9092C16.7411 32.7627 16.471 32.6895 16.1422 32.6895C15.8297 32.6895 15.5774 32.7546 15.3854 32.8848C15.1965 33.015 15.1021 33.1875 15.1021 33.4023C15.1021 33.5911 15.1835 33.7441 15.3463 33.8613C15.5123 33.9753 15.7809 34.0697 16.152 34.1445L17.065 34.3154C17.7584 34.4489 18.2678 34.6784 18.5934 35.0039C18.9189 35.3294 19.0816 35.7705 19.0816 36.3271C19.0816 37.027 18.8131 37.5853 18.276 38.002C17.7389 38.4154 17.0162 38.6221 16.108 38.6221C15.2063 38.6221 14.4951 38.4316 13.9742 38.0508C13.4566 37.6699 13.193 37.1393 13.1832 36.459ZM23.5443 38.5H21.7572V32.8994H19.8139V31.4541H25.4877V32.8994H23.5443V38.5ZM32.9727 34.1006L31.7861 38.5H30.0967L28.2559 31.4541H30.1064L31.0586 36.2148H31.0977L32.2744 31.4541H33.71L34.8867 36.2148H34.9258L35.8779 31.4541H37.7285L35.8877 38.5H34.1982L33.0117 34.1006H32.9727ZM43.49 37.0547V38.5H38.6609V31.4541H43.49V32.8994H40.4529V34.3008H43.3094V35.6191H40.4529V37.0547H43.49ZM48.065 38.5H44.7008V31.4541H47.9771C48.6705 31.4541 49.2141 31.6104 49.608 31.9229C50.0019 32.2354 50.1988 32.665 50.1988 33.2119C50.1988 33.6025 50.067 33.9411 49.8033 34.2275C49.5429 34.514 49.2158 34.6849 48.8219 34.7402V34.7793C49.3036 34.8021 49.7073 34.973 50.0328 35.292C50.3616 35.611 50.526 36.0033 50.526 36.4688C50.526 37.0872 50.303 37.5804 49.857 37.9482C49.4143 38.3161 48.817 38.5 48.065 38.5ZM46.4928 32.7236V34.3252H47.4156C47.7411 34.3252 47.9951 34.2536 48.1773 34.1104C48.3629 33.9639 48.4557 33.7637 48.4557 33.5098C48.4557 33.2624 48.371 33.0703 48.2018 32.9336C48.0357 32.7936 47.803 32.7236 47.5035 32.7236H46.4928ZM46.4928 37.2305H47.5572C47.9283 37.2305 48.2115 37.1523 48.4068 36.9961C48.6054 36.8366 48.7047 36.6087 48.7047 36.3125C48.7047 36.026 48.6038 35.8047 48.402 35.6484C48.2001 35.4922 47.9153 35.4141 47.5475 35.4141H46.4928V37.2305ZM51.2582 36.459H52.9623C52.9949 36.6966 53.1299 36.8903 53.3676 37.04C53.6085 37.1898 53.8965 37.2646 54.2318 37.2646C54.5769 37.2646 54.8552 37.1963 55.0668 37.0596C55.2784 36.9196 55.3842 36.7422 55.3842 36.5273C55.3842 36.332 55.3012 36.1807 55.1352 36.0732C54.9724 35.9626 54.6892 35.8649 54.2855 35.7803L53.3627 35.5996C52.7149 35.4759 52.225 35.2432 51.893 34.9014C51.5609 34.5563 51.3949 34.1152 51.3949 33.5781C51.3949 32.901 51.6553 32.3574 52.1762 31.9473C52.7003 31.5371 53.3741 31.332 54.1977 31.332C55.0701 31.332 55.7553 31.529 56.2533 31.9229C56.7546 32.3135 57.0102 32.8424 57.0199 33.5098H55.3695C55.3533 33.2559 55.2393 33.0557 55.0277 32.9092C54.8161 32.7627 54.546 32.6895 54.2172 32.6895C53.9047 32.6895 53.6524 32.7546 53.4604 32.8848C53.2715 33.015 53.1771 33.1875 53.1771 33.4023C53.1771 33.5911 53.2585 33.7441 53.4213 33.8613C53.5873 33.9753 53.8559 34.0697 54.227 34.1445L55.14 34.3154C55.8334 34.4489 56.3428 34.6784 56.6684 35.0039C56.9939 35.3294 57.1566 35.7705 57.1566 36.3271C57.1566 37.027 56.8881 37.5853 56.351 38.002C55.8139 38.4154 55.0912 38.6221 54.183 38.6221C53.2813 38.6221 52.5701 38.4316 52.0492 38.0508C51.5316 37.6699 51.268 37.1393 51.2582 36.459ZM59.9885 38.5H58.1965V31.4541H59.9885V38.5ZM64.6807 38.5H62.8936V32.8994H60.9502V31.4541H66.624V32.8994H64.6807V38.5ZM72.41 37.0547V38.5H67.5809V31.4541H72.41V32.8994H69.3728V34.3008H72.2293V35.6191H69.3728V37.0547H72.41ZM77.5561 38.5H75.7641V31.4541H80.559V32.8994H77.5561V34.501H80.2855V35.873H77.5561V38.5ZM82.2922 32.3135C82.9204 31.6592 83.7684 31.332 84.8361 31.332C85.9038 31.332 86.7502 31.6592 87.3752 32.3135C88.0002 32.9678 88.3127 33.8564 88.3127 34.9795C88.3127 36.1025 88.0002 36.9912 87.3752 37.6455C86.7502 38.2965 85.9038 38.6221 84.8361 38.6221C83.7652 38.6221 82.9172 38.2965 82.2922 37.6455C81.6672 36.9912 81.3547 36.1025 81.3547 34.9795C81.3547 33.8564 81.6672 32.9678 82.2922 32.3135ZM86.0373 33.3828C85.7378 32.9857 85.3374 32.7871 84.8361 32.7871C84.3348 32.7871 83.9328 32.9857 83.6301 33.3828C83.3306 33.7767 83.1809 34.3089 83.1809 34.9795C83.1809 35.6468 83.3306 36.179 83.6301 36.5762C83.9296 36.9701 84.3316 37.167 84.8361 37.167C85.3374 37.167 85.7378 36.9701 86.0373 36.5762C86.34 36.179 86.4914 35.6468 86.4914 34.9795C86.4914 34.3089 86.34 33.7767 86.0373 33.3828ZM91.1787 32.8066V34.8086H92.2285C92.5573 34.8086 92.8145 34.7191 93 34.54C93.1855 34.361 93.2783 34.1185 93.2783 33.8125C93.2783 33.5098 93.1823 33.2673 92.9902 33.085C92.7982 32.8994 92.5426 32.8066 92.2236 32.8066H91.1787ZM91.1787 36.0342V38.5H89.3867V31.4541H92.4043C93.2767 31.4541 93.9456 31.6576 94.4111 32.0645C94.8766 32.4714 95.1094 33.0426 95.1094 33.7783C95.1094 34.221 95.002 34.623 94.7871 34.9844C94.5755 35.3424 94.2809 35.6045 93.9033 35.7705L95.3145 38.5H93.3027L92.0918 36.0342H91.1787ZM98.3512 31.4541H101.213C102.283 31.4541 103.114 31.7552 103.703 32.3574C104.295 32.9596 104.591 33.819 104.591 34.9355C104.591 36.0586 104.294 36.9342 103.698 37.5625C103.105 38.1875 102.277 38.5 101.213 38.5H98.3512V31.4541ZM100.143 32.8994V37.0547H100.978C101.564 37.0547 102.008 36.8773 102.311 36.5225C102.617 36.1676 102.77 35.6403 102.77 34.9404C102.77 34.2829 102.614 33.7783 102.301 33.4268C101.989 33.0752 101.548 32.8994 100.978 32.8994H100.143ZM105.25 36.2051H106.974C106.977 36.485 107.054 36.708 107.204 36.874C107.357 37.0368 107.562 37.1182 107.819 37.1182C108.082 37.1182 108.284 37.0368 108.424 36.874C108.564 36.708 108.634 36.4688 108.634 36.1562V31.4541H110.421V36.166C110.421 36.9538 110.193 37.5625 109.738 37.9922C109.285 38.4186 108.652 38.6318 107.838 38.6318C107.047 38.6318 106.417 38.4137 105.949 37.9775C105.483 37.5413 105.25 36.9505 105.25 36.2051ZM111.544 36.459H113.248C113.281 36.6966 113.416 36.8903 113.654 37.04C113.894 37.1898 114.182 37.2646 114.518 37.2646C114.863 37.2646 115.141 37.1963 115.353 37.0596C115.564 36.9196 115.67 36.7422 115.67 36.5273C115.67 36.332 115.587 36.1807 115.421 36.0732C115.258 35.9626 114.975 35.8649 114.571 35.7803L113.649 35.5996C113.001 35.4759 112.511 35.2432 112.179 34.9014C111.847 34.5563 111.681 34.1152 111.681 33.5781C111.681 32.901 111.941 32.3574 112.462 31.9473C112.986 31.5371 113.66 31.332 114.484 31.332C115.356 31.332 116.041 31.529 116.539 31.9229C117.041 32.3135 117.296 32.8424 117.306 33.5098H115.655C115.639 33.2559 115.525 33.0557 115.314 32.9092C115.102 32.7627 114.832 32.6895 114.503 32.6895C114.191 32.6895 113.938 32.7546 113.746 32.8848C113.557 33.015 113.463 33.1875 113.463 33.4023C113.463 33.5911 113.544 33.7441 113.707 33.8613C113.873 33.9753 114.142 34.0697 114.513 34.1445L115.426 34.3154C116.119 34.4489 116.629 34.6784 116.954 35.0039C117.28 35.3294 117.443 35.7705 117.443 36.3271C117.443 37.027 117.174 37.5853 116.637 38.002C116.1 38.4154 115.377 38.6221 114.469 38.6221C113.567 38.6221 112.856 38.4316 112.335 38.0508C111.818 37.6699 111.554 37.1393 111.544 36.459ZM119.659 40.1162H118.404L118.712 37.2256H120.309L119.659 40.1162ZM126.319 38.6221C125.258 38.6221 124.421 38.3014 123.809 37.6602C123.2 37.0156 122.896 36.1204 122.896 34.9746C122.896 33.832 123.202 32.9401 123.814 32.2988C124.426 31.6543 125.261 31.332 126.319 31.332C126.908 31.332 127.442 31.4508 127.921 31.6885C128.399 31.9229 128.778 32.2549 129.058 32.6846C129.341 33.111 129.491 33.5977 129.507 34.1445H127.784C127.741 33.7311 127.585 33.3991 127.315 33.1484C127.045 32.8945 126.713 32.7676 126.319 32.7676C125.827 32.7676 125.438 32.9645 125.152 33.3584C124.865 33.7523 124.722 34.2894 124.722 34.9697C124.722 35.6598 124.865 36.2018 125.152 36.5957C125.438 36.9896 125.829 37.1865 126.324 37.1865C126.718 37.1865 127.046 37.0661 127.31 36.8252C127.577 36.5843 127.738 36.2572 127.794 35.8438H129.517C129.475 36.6771 129.159 37.3493 128.57 37.8604C127.981 38.3682 127.23 38.6221 126.319 38.6221ZM132.349 32.8066V34.8086H133.399C133.728 34.8086 133.985 34.7191 134.17 34.54C134.356 34.361 134.449 34.1185 134.449 33.8125C134.449 33.5098 134.353 33.2673 134.161 33.085C133.968 32.8994 133.713 32.8066 133.394 32.8066H132.349ZM132.349 36.0342V38.5H130.557V31.4541H133.575C134.447 31.4541 135.116 31.6576 135.581 32.0645C136.047 32.4714 136.28 33.0426 136.28 33.7783C136.28 34.221 136.172 34.623 135.957 34.9844C135.746 35.3424 135.451 35.6045 135.074 35.7705L136.485 38.5H134.473L133.262 36.0342H132.349ZM142.207 37.0547V38.5H137.378V31.4541H142.207V32.8994H139.17V34.3008H142.027V35.6191H139.17V37.0547H142.207ZM148.052 38.5L147.607 36.9521H145.303L144.854 38.5H143.027L145.396 31.4541H147.588L149.956 38.5H148.052ZM146.436 32.9482L145.649 35.6631H147.256L146.475 32.9482H146.436ZM153.32 38.5H151.533V32.8994H149.59V31.4541H155.263V32.8994H153.32V38.5ZM161.049 37.0547V38.5H156.22V31.4541H161.049V32.8994H158.012V34.3008H160.869V35.6191H158.012V37.0547H161.049ZM162.26 31.4541H165.121C166.192 31.4541 167.023 31.7552 167.612 32.3574C168.204 32.9596 168.5 33.819 168.5 34.9355C168.5 36.0586 168.203 36.9342 167.607 37.5625C167.014 38.1875 166.186 38.5 165.121 38.5H162.26V31.4541ZM164.052 32.8994V37.0547H164.887C165.473 37.0547 165.917 36.8773 166.22 36.5225C166.526 36.1676 166.679 35.6403 166.679 34.9404C166.679 34.2829 166.523 33.7783 166.21 33.4268C165.898 33.0752 165.457 32.8994 164.887 32.8994H164.052ZM175.077 38.5H171.713V31.4541H174.989C175.683 31.4541 176.226 31.6104 176.62 31.9229C177.014 32.2354 177.211 32.665 177.211 33.2119C177.211 33.6025 177.079 33.9411 176.815 34.2275C176.555 34.514 176.228 34.6849 175.834 34.7402V34.7793C176.316 34.8021 176.719 34.973 177.045 35.292C177.374 35.611 177.538 36.0033 177.538 36.4688C177.538 37.0872 177.315 37.5804 176.869 37.9482C176.426 38.3161 175.829 38.5 175.077 38.5ZM173.505 32.7236V34.3252H174.428C174.753 34.3252 175.007 34.2536 175.189 34.1104C175.375 33.9639 175.468 33.7637 175.468 33.5098C175.468 33.2624 175.383 33.0703 175.214 32.9336C175.048 32.7936 174.815 32.7236 174.516 32.7236H173.505ZM173.505 37.2305H174.569C174.94 37.2305 175.224 37.1523 175.419 36.9961C175.618 36.8366 175.717 36.6087 175.717 36.3125C175.717 36.026 175.616 35.8047 175.414 35.6484C175.212 35.4922 174.927 35.4141 174.56 35.4141H173.505V37.2305ZM182.098 38.5H180.306V36.0781L177.88 31.4541H179.804L181.205 34.3838H181.239L182.636 31.4541H184.525L182.098 36.0781V38.5ZM187.547 31.4541H190.409C191.48 31.4541 192.31 31.7552 192.899 32.3574C193.491 32.9596 193.788 33.819 193.788 34.9355C193.788 36.0586 193.49 36.9342 192.894 37.5625C192.302 38.1875 191.473 38.5 190.409 38.5H187.547V31.4541ZM189.339 32.8994V37.0547H190.174C190.76 37.0547 191.204 36.8773 191.507 36.5225C191.813 36.1676 191.966 35.6403 191.966 34.9404C191.966 34.2829 191.81 33.7783 191.497 33.4268C191.185 33.0752 190.744 32.8994 190.174 32.8994H189.339ZM194.446 36.2051H196.17C196.173 36.485 196.25 36.708 196.4 36.874C196.553 37.0368 196.758 37.1182 197.015 37.1182C197.279 37.1182 197.48 37.0368 197.62 36.874C197.76 36.708 197.83 36.4688 197.83 36.1562V31.4541H199.617V36.166C199.617 36.9538 199.39 37.5625 198.934 37.9922C198.481 38.4186 197.848 38.6318 197.034 38.6318C196.243 38.6318 195.613 38.4137 195.145 37.9775C194.679 37.5413 194.446 36.9505 194.446 36.2051ZM200.74 36.459H202.444C202.477 36.6966 202.612 36.8903 202.85 37.04C203.09 37.1898 203.379 37.2646 203.714 37.2646C204.059 37.2646 204.337 37.1963 204.549 37.0596C204.76 36.9196 204.866 36.7422 204.866 36.5273C204.866 36.332 204.783 36.1807 204.617 36.0732C204.454 35.9626 204.171 35.8649 203.768 35.7803L202.845 35.5996C202.197 35.4759 201.707 35.2432 201.375 34.9014C201.043 34.5563 200.877 34.1152 200.877 33.5781C200.877 32.901 201.137 32.3574 201.658 31.9473C202.182 31.5371 202.856 31.332 203.68 31.332C204.552 31.332 205.237 31.529 205.735 31.9229C206.237 32.3135 206.492 32.8424 206.502 33.5098H204.852C204.835 33.2559 204.721 33.0557 204.51 32.9092C204.298 32.7627 204.028 32.6895 203.699 32.6895C203.387 32.6895 203.134 32.7546 202.942 32.8848C202.754 33.015 202.659 33.1875 202.659 33.4023C202.659 33.5911 202.741 33.7441 202.903 33.8613C203.069 33.9753 203.338 34.0697 203.709 34.1445L204.622 34.3154C205.315 34.4489 205.825 34.6784 206.15 35.0039C206.476 35.3294 206.639 35.7705 206.639 36.3271C206.639 37.027 206.37 37.5853 205.833 38.002C205.296 38.4154 204.573 38.6221 203.665 38.6221C202.763 38.6221 202.052 38.4316 201.531 38.0508C201.014 37.6699 200.75 37.1393 200.74 36.459Z" fill="white"/>
<defs>
<clipPath id="clip0_829_129506">
<rect width="210" height="21" fill="white" transform="translate(0 0.5)"/>
</clipPath>
</defs>
</svg>
