<svg width="20" height="20" viewBox="0 0 20 20" xmlns="http://www.w3.org/2000/svg">
<path d="M12.4998 18.9583H7.49984C2.97484 18.9583 1.0415 17.025 1.0415 12.5V7.5C1.0415 2.975 2.97484 1.04166 7.49984 1.04166H12.4998C17.0248 1.04166 18.9582 2.975 18.9582 7.5V12.5C18.9582 17.025 17.0248 18.9583 12.4998 18.9583ZM7.49984 2.29166C3.65817 2.29166 2.2915 3.65833 2.2915 7.5V12.5C2.2915 16.3417 3.65817 17.7083 7.49984 17.7083H12.4998C16.3415 17.7083 17.7082 16.3417 17.7082 12.5V7.5C17.7082 3.65833 16.3415 2.29166 12.4998 2.29166H7.49984Z"/>
<path d="M6.10817 12.7C5.97484 12.7 5.8415 12.6583 5.72484 12.5667C5.44984 12.3583 5.39984 11.9667 5.60817 11.6917L7.5915 9.11666C7.83317 8.80833 8.17484 8.60833 8.5665 8.55833C8.94984 8.50833 9.3415 8.61666 9.64984 8.85833L11.1748 10.0583C11.2332 10.1083 11.2915 10.1083 11.3332 10.1C11.3665 10.1 11.4248 10.0833 11.4748 10.0167L13.3998 7.53333C13.6082 7.25833 14.0082 7.20833 14.2748 7.425C14.5498 7.63333 14.5998 8.025 14.3832 8.3L12.4582 10.7833C12.2165 11.0917 11.8748 11.2917 11.4832 11.3333C11.0915 11.3833 10.7082 11.275 10.3998 11.0333L8.87484 9.83333C8.8165 9.78333 8.74984 9.78333 8.7165 9.79166C8.68317 9.79166 8.62484 9.80833 8.57484 9.875L6.5915 12.45C6.48317 12.6167 6.29984 12.7 6.10817 12.7Z"/>
</svg>
