<svg width="16" height="16" viewBox="0 0 16 16" fill="none" xmlns="http://www.w3.org/2000/svg">
<path d="M9.61992 12.5467C9.49325 12.5467 9.36658 12.5 9.26658 12.4C9.07325 12.2067 9.07325 11.8867 9.26658 11.6934L12.9599 8.00002L9.26658 4.30668C9.07325 4.11335 9.07325 3.79335 9.26658 3.60002C9.45992 3.40668 9.77992 3.40668 9.97325 3.60002L14.0199 7.64668C14.2133 7.84002 14.2133 8.16002 14.0199 8.35335L9.97325 12.4C9.87325 12.5 9.74658 12.5467 9.61992 12.5467Z" fill="#D8D7DF"/>
<path d="M13.5535 8.5H2.3335C2.06016 8.5 1.8335 8.27333 1.8335 8C1.8335 7.72667 2.06016 7.5 2.3335 7.5H13.5535C13.8268 7.5 14.0535 7.72667 14.0535 8C14.0535 8.27333 13.8268 8.5 13.5535 8.5Z" fill="white"/>
</svg>
