<svg width="16" height="17" viewBox="0 0 16 17" fill="none" xmlns="http://www.w3.org/2000/svg">
<path d="M8.00016 15.6667C4.04683 15.6667 0.833496 12.4534 0.833496 8.50004C0.833496 4.54671 4.04683 1.33337 8.00016 1.33337C11.9535 1.33337 15.1668 4.54671 15.1668 8.50004C15.1668 12.4534 11.9535 15.6667 8.00016 15.6667ZM8.00016 2.33337C4.60016 2.33337 1.8335 5.10004 1.8335 8.50004C1.8335 11.9 4.60016 14.6667 8.00016 14.6667C11.4002 14.6667 14.1668 11.9 14.1668 8.50004C14.1668 5.10004 11.4002 2.33337 8.00016 2.33337Z" fill="#E81943"/>
<path d="M8 10.6666C7.72667 10.6666 7.5 10.44 7.5 10.1666V6.16663C7.5 5.89329 7.72667 5.66663 8 5.66663C8.27333 5.66663 8.5 5.89329 8.5 6.16663V10.1666C8.5 10.44 8.27333 10.6666 8 10.6666Z" fill="#E81943"/>
<path d="M7.9998 11.3333C7.87313 11.3333 7.74646 11.2866 7.64646 11.1866L5.64646 9.18663C5.45313 8.99329 5.45313 8.67329 5.64646 8.47996C5.8398 8.28663 6.1598 8.28663 6.35313 8.47996L7.9998 10.1266L9.64646 8.47996C9.8398 8.28663 10.1598 8.28663 10.3531 8.47996C10.5465 8.67329 10.5465 8.99329 10.3531 9.18663L8.35313 11.1866C8.25313 11.2866 8.12646 11.3333 7.9998 11.3333Z" fill="#E81943"/>
</svg>
