<svg width="20" height="20" viewBox="0 0 20 20" xmlns="http://www.w3.org/2000/svg">
<path d="M13.3335 18.9583H6.66683C4.15016 18.9583 2.7085 17.5167 2.7085 15V6.875C2.7085 4.25 4.04183 2.91666 6.66683 2.91666C7.0085 2.91666 7.29183 3.2 7.29183 3.54166C7.29183 3.875 7.42516 4.19166 7.6585 4.425C7.89183 4.65833 8.2085 4.79166 8.54183 4.79166H11.4585C12.1502 4.79166 12.7085 4.23333 12.7085 3.54166C12.7085 3.2 12.9918 2.91666 13.3335 2.91666C15.9585 2.91666 17.2918 4.25 17.2918 6.875V15C17.2918 17.5167 15.8502 18.9583 13.3335 18.9583ZM6.12514 4.18333C4.80848 4.29167 3.9585 4.88333 3.9585 6.875V15C3.9585 16.85 4.81683 17.7083 6.66683 17.7083H13.3335C15.1835 17.7083 16.0418 16.85 16.0418 15V6.875C16.0418 4.88333 15.1918 4.3 13.8752 4.18333C13.5918 5.25 12.6168 6.04166 11.4585 6.04166H8.54183C7.87516 6.04166 7.25017 5.78333 6.77517 5.30833C6.4585 4.99166 6.24181 4.60833 6.12514 4.18333Z"/>
<path d="M11.4585 6.04166H8.54183C7.87516 6.04166 7.25017 5.78333 6.77517 5.30833C6.30017 4.83333 6.04183 4.20833 6.04183 3.54166C6.04183 2.16666 7.16683 1.04166 8.54183 1.04166H11.4585C12.1252 1.04166 12.7502 1.3 13.2252 1.775C13.7002 2.25 13.9585 2.875 13.9585 3.54166C13.9585 4.91666 12.8335 6.04166 11.4585 6.04166ZM8.54183 2.29166C7.85016 2.29166 7.29183 2.85 7.29183 3.54166C7.29183 3.875 7.42516 4.19166 7.6585 4.425C7.89183 4.65833 8.2085 4.79166 8.54183 4.79166H11.4585C12.1502 4.79166 12.7085 4.23333 12.7085 3.54166C12.7085 3.20833 12.5752 2.89167 12.3418 2.65833C12.1085 2.425 11.7918 2.29166 11.4585 2.29166H8.54183Z"/>
<path d="M10.0002 11.4583H6.66683C6.32516 11.4583 6.04183 11.175 6.04183 10.8333C6.04183 10.4917 6.32516 10.2083 6.66683 10.2083H10.0002C10.3418 10.2083 10.6252 10.4917 10.6252 10.8333C10.6252 11.175 10.3418 11.4583 10.0002 11.4583Z"/>
<path d="M13.3335 14.7917H6.66683C6.32516 14.7917 6.04183 14.5083 6.04183 14.1667C6.04183 13.825 6.32516 13.5417 6.66683 13.5417H13.3335C13.6752 13.5417 13.9585 13.825 13.9585 14.1667C13.9585 14.5083 13.6752 14.7917 13.3335 14.7917Z"/>
</svg>
