<svg width="20" height="20" viewBox="0 0 20 20" xmlns="http://www.w3.org/2000/svg">
<path d="M14.9997 6.59168C14.9747 6.59168 14.958 6.59168 14.933 6.59168H14.8914C13.3164 6.54168 12.1414 5.32501 12.1414 3.82501C12.1414 2.29167 13.3914 1.05001 14.9164 1.05001C16.4414 1.05001 17.6914 2.30001 17.6914 3.82501C17.683 5.33334 16.508 6.55001 15.008 6.60001C15.008 6.59167 15.008 6.59168 14.9997 6.59168ZM14.9164 2.29168C14.0747 2.29168 13.3914 2.97501 13.3914 3.81668C13.3914 4.64168 14.033 5.30835 14.858 5.34168C14.8664 5.33335 14.933 5.33335 15.008 5.34168C15.8164 5.30001 16.4414 4.63334 16.4497 3.81668C16.4497 2.97501 15.7664 2.29168 14.9164 2.29168Z"/>
<path d="M15.0082 12.7334C14.6832 12.7334 14.3582 12.7083 14.0332 12.65C13.6915 12.5917 13.4665 12.2667 13.5248 11.925C13.5832 11.5834 13.9082 11.3584 14.2498 11.4167C15.2748 11.5917 16.3582 11.4 17.0832 10.9167C17.4748 10.6584 17.6832 10.3333 17.6832 10.0083C17.6832 9.68335 17.4665 9.36668 17.0832 9.10835C16.3582 8.62502 15.2582 8.43335 14.2248 8.61668C13.8832 8.68335 13.5582 8.45002 13.4998 8.10835C13.4415 7.76668 13.6665 7.44169 14.0082 7.38335C15.3665 7.14169 16.7748 7.40001 17.7748 8.06668C18.5082 8.55835 18.9332 9.25835 18.9332 10.0083C18.9332 10.75 18.5165 11.4584 17.7748 11.9584C17.0165 12.4584 16.0332 12.7334 15.0082 12.7334Z"/>
<path d="M4.97482 6.59167C4.96649 6.59167 4.95816 6.59167 4.95816 6.59167C3.45816 6.54167 2.28315 5.32499 2.27482 3.82499C2.27482 2.29166 3.52482 1.04166 5.04982 1.04166C6.57482 1.04166 7.82482 2.29167 7.82482 3.81667C7.82482 5.325 6.64982 6.54167 5.14982 6.59167L4.97482 5.96667L5.03316 6.59167C5.01649 6.59167 4.99149 6.59167 4.97482 6.59167ZM5.05815 5.34167C5.10815 5.34167 5.14982 5.34166 5.19982 5.35C5.94149 5.31666 6.59149 4.64999 6.59149 3.82499C6.59149 2.98333 5.90816 2.29999 5.06649 2.29999C4.22482 2.29999 3.54149 2.98333 3.54149 3.82499C3.54149 4.64166 4.17482 5.3 4.98315 5.35C4.99149 5.34166 5.02482 5.34167 5.05815 5.34167Z"/>
<path d="M4.9665 12.7334C3.9415 12.7334 2.95817 12.4584 2.19984 11.9584C1.4665 11.4667 1.0415 10.7583 1.0415 10.0083C1.0415 9.26668 1.4665 8.55835 2.19984 8.06668C3.19984 7.40001 4.60817 7.14169 5.9665 7.38335C6.30817 7.44169 6.53317 7.76668 6.47484 8.10835C6.4165 8.45002 6.09151 8.68335 5.74984 8.61668C4.71651 8.43335 3.62484 8.62502 2.89151 9.10835C2.49984 9.36668 2.2915 9.68335 2.2915 10.0083C2.2915 10.3333 2.50817 10.6584 2.89151 10.9167C3.6165 11.4 4.69984 11.5917 5.72484 11.4167C6.0665 11.3584 6.39151 11.5917 6.44984 11.925C6.50817 12.2667 6.28317 12.5917 5.94151 12.65C5.61651 12.7083 5.2915 12.7334 4.9665 12.7334Z"/>
<path d="M9.99969 12.8167C9.97469 12.8167 9.95802 12.8167 9.93302 12.8167H9.89136C8.31636 12.7667 7.14136 11.55 7.14136 10.05C7.14136 8.51665 8.39136 7.27498 9.91636 7.27498C11.4414 7.27498 12.6914 8.52498 12.6914 10.05C12.683 11.5583 11.508 12.775 10.008 12.825C10.008 12.8167 10.008 12.8167 9.99969 12.8167ZM9.91636 8.51665C9.07469 8.51665 8.39136 9.19999 8.39136 10.0417C8.39136 10.8667 9.03303 11.5333 9.85803 11.5667C9.86636 11.5583 9.93302 11.5583 10.008 11.5667C10.8164 11.525 11.4414 10.8583 11.4497 10.0417C11.4497 9.20832 10.7664 8.51665 9.91636 8.51665Z"/>
<path d="M9.99966 18.9666C8.99966 18.9666 7.99966 18.7083 7.22466 18.1833C6.49132 17.6917 6.06633 16.9916 6.06633 16.2416C6.06633 15.5 6.48299 14.7833 7.22466 14.2916C8.78299 13.2583 11.2247 13.2583 12.7747 14.2916C13.508 14.7833 13.933 15.4833 13.933 16.2333C13.933 16.975 13.5163 17.6917 12.7747 18.1833C11.9997 18.7 10.9997 18.9666 9.99966 18.9666ZM7.91633 15.3416C7.52466 15.6 7.31633 15.925 7.31633 16.25C7.31633 16.575 7.53299 16.8916 7.91633 17.15C9.04133 17.9083 10.9497 17.9083 12.0747 17.15C12.4663 16.8916 12.6747 16.5666 12.6747 16.2416C12.6747 15.9166 12.458 15.6 12.0747 15.3416C10.958 14.5833 9.04966 14.5916 7.91633 15.3416Z"/>
</svg>
