<svg width="20" height="20" viewBox="0 0 20 20" xmlns="http://www.w3.org/2000/svg">
<path d="M4.55838 8.95833C3.96671 8.95833 3.36671 8.74166 2.90838 8.3C1.37505 6.84166 0.758381 5.25 1.11671 3.69166C1.54171 1.85833 3.15005 1.04166 4.55838 1.04166C5.96671 1.04166 7.58338 1.86666 8.00005 3.69166C8.35838 5.25 7.73338 6.84166 6.20838 8.3C5.75005 8.74166 5.15838 8.95833 4.55838 8.95833ZM2.33338 3.975C2.01671 5.36666 2.94171 6.6 3.77505 7.39166C4.21671 7.81666 4.90838 7.80833 5.35005 7.39166C6.18338 6.6 7.10838 5.36666 6.78338 3.96666C6.50005 2.73333 5.40838 2.29166 4.56671 2.29166C3.71671 2.29166 2.62505 2.73333 2.33338 3.975Z"/>
<path d="M4.59171 5.16666C4.13338 5.16666 3.75838 4.79166 3.75838 4.33333C3.75838 3.875 4.12505 3.5 4.59171 3.5H4.60005C5.05838 3.5 5.43338 3.875 5.43338 4.33333C5.43338 4.79166 5.05838 5.16666 4.59171 5.16666Z"/>
<path d="M15.4084 18.9583C14.8167 18.9583 14.2167 18.7417 13.75 18.3C12.2084 16.8417 11.5834 15.25 11.95 13.6833C12.375 11.8583 13.9917 11.0333 15.4084 11.0333C16.8251 11.0333 18.4417 11.8583 18.8667 13.6833C19.225 15.2417 18.6 16.8417 17.0584 18.2917C16.6 18.7417 16.0084 18.9583 15.4084 18.9583ZM15.4084 12.2917C14.5584 12.2917 13.4584 12.7333 13.1667 13.975C12.8417 15.3667 13.7751 16.6083 14.6084 17.4C15.0501 17.825 15.7501 17.825 16.2001 17.4C17.0334 16.6083 17.9667 15.375 17.6417 13.9833C17.3667 12.7333 16.2667 12.2917 15.4084 12.2917Z"/>
<path d="M15.4417 15.1667C14.9834 15.1667 14.6084 14.7917 14.6084 14.3333C14.6084 13.875 14.975 13.5 15.4417 13.5H15.45C15.9084 13.5 16.2834 13.875 16.2834 14.3333C16.2834 14.7917 15.9 15.1667 15.4417 15.1667Z"/>
<path d="M10 16.4583H7.76671C6.80005 16.4583 5.95838 15.875 5.62505 14.975C5.28338 14.075 5.53338 13.0833 6.25838 12.4417L12.9167 6.61666C13.3167 6.26666 13.325 5.79166 13.2084 5.46666C13.0834 5.14166 12.7667 4.79166 12.2334 4.79166H10C9.65838 4.79166 9.37505 4.50833 9.37505 4.16666C9.37505 3.825 9.65838 3.54166 10 3.54166H12.2334C13.2 3.54166 14.0417 4.125 14.375 5.025C14.7167 5.925 14.4667 6.91666 13.7417 7.55833L7.08338 13.3833C6.68338 13.7333 6.67505 14.2083 6.79171 14.5333C6.91671 14.8583 7.23338 15.2083 7.76671 15.2083H10C10.3417 15.2083 10.625 15.4917 10.625 15.8333C10.625 16.175 10.3417 16.4583 10 16.4583Z"/>
<path d="M10 16.4583H7.76671C6.80005 16.4583 5.95838 15.875 5.62505 14.975C5.28338 14.075 5.53338 13.0833 6.25838 12.4417L12.9167 6.61666C13.3167 6.26666 13.325 5.79166 13.2084 5.46666C13.0834 5.14166 12.7667 4.79166 12.2334 4.79166H10C9.65838 4.79166 9.37505 4.50833 9.37505 4.16666C9.37505 3.825 9.65838 3.54166 10 3.54166H12.2334C13.2 3.54166 14.0417 4.125 14.375 5.025C14.7167 5.925 14.4667 6.91666 13.7417 7.55833L7.08338 13.3833C6.68338 13.7333 6.67505 14.2083 6.79171 14.5333C6.91671 14.8583 7.23338 15.2083 7.76671 15.2083H10C10.3417 15.2083 10.625 15.4917 10.625 15.8333C10.625 16.175 10.3417 16.4583 10 16.4583Z"/>
</svg>
