<svg width="20" height="20" viewBox="0 0 20 20" xmlns="http://www.w3.org/2000/svg">
<path d="M14.7166 18.8917C14.2749 18.8917 13.7083 18.75 12.9999 18.3333L10.5083 16.8583C10.2499 16.7083 9.74994 16.7083 9.49994 16.8583L6.99993 18.3333C5.52493 19.2083 4.65827 18.8583 4.2666 18.575C3.88327 18.2917 3.28327 17.5667 3.67494 15.9L4.2666 13.3417C4.33327 13.075 4.19994 12.6167 3.99994 12.4167L1.93327 10.35C0.899935 9.31667 0.983269 8.43333 1.12494 8C1.2666 7.56667 1.7166 6.8 3.14994 6.55833L5.80827 6.11667C6.05827 6.075 6.4166 5.80833 6.52494 5.58333L7.99994 2.64167C8.6666 1.3 9.5416 1.1 9.99994 1.1C10.4583 1.1 11.3333 1.3 11.9999 2.64167L13.4666 5.575C13.5833 5.8 13.9416 6.06666 14.1916 6.10833L16.8499 6.55C18.2916 6.79166 18.7416 7.55833 18.8749 7.99167C19.0083 8.425 19.0916 9.30833 18.0666 10.3417L15.9999 12.4167C15.7999 12.6167 15.6749 13.0667 15.7333 13.3417L16.3249 15.9C16.7083 17.5667 16.1166 18.2917 15.7333 18.575C15.5249 18.725 15.1916 18.8917 14.7166 18.8917ZM9.99994 15.4917C10.4083 15.4917 10.8166 15.5917 11.1416 15.7833L13.6333 17.2583C14.3583 17.6917 14.8166 17.6917 14.9916 17.5667C15.1666 17.4417 15.2916 17 15.1083 16.1833L14.5166 13.625C14.3583 12.9333 14.6166 12.0417 15.1166 11.5333L17.1833 9.46666C17.5916 9.05833 17.7749 8.65833 17.6916 8.38333C17.5999 8.10833 17.2166 7.88333 16.6499 7.79167L13.9916 7.35C13.3499 7.24166 12.6499 6.725 12.3583 6.14166L10.8916 3.20833C10.6249 2.675 10.2916 2.35833 9.99994 2.35833C9.70827 2.35833 9.37494 2.675 9.1166 3.20833L7.6416 6.14166C7.34994 6.725 6.64994 7.24166 6.00827 7.35L3.35827 7.79167C2.7916 7.88333 2.40827 8.10833 2.3166 8.38333C2.22494 8.65833 2.4166 9.06666 2.82494 9.46666L4.8916 11.5333C5.3916 12.0333 5.64994 12.9333 5.4916 13.625L4.89994 16.1833C4.70827 17.0083 4.8416 17.4417 5.0166 17.5667C5.1916 17.6917 5.6416 17.6833 6.37494 17.2583L8.8666 15.7833C9.18327 15.5917 9.5916 15.4917 9.99994 15.4917Z"/>
</svg>
