<svg width="20" height="20" viewBox="0 0 20 20" xmlns="http://www.w3.org/2000/svg">
<path d="M12.4998 18.9583H7.49984C2.97484 18.9583 1.0415 17.025 1.0415 12.5V7.5C1.0415 2.975 2.97484 1.04166 7.49984 1.04166H12.4998C17.0248 1.04166 18.9582 2.975 18.9582 7.5V12.5C18.9582 17.025 17.0248 18.9583 12.4998 18.9583ZM7.49984 2.29166C3.65817 2.29166 2.2915 3.65833 2.2915 7.5V12.5C2.2915 16.3417 3.65817 17.7083 7.49984 17.7083H12.4998C16.3415 17.7083 17.7082 16.3417 17.7082 12.5V7.5C17.7082 3.65833 16.3415 2.29166 12.4998 2.29166H7.49984Z"/>
<path d="M17.8998 6.55H2.09984C1.75817 6.55 1.47484 6.26666 1.47484 5.925C1.47484 5.58333 1.74984 5.3 2.09984 5.3H17.8998C18.2415 5.3 18.5248 5.58333 18.5248 5.925C18.5248 6.26666 18.2498 6.55 17.8998 6.55Z"/>
<path d="M7.09984 6.43333C6.75817 6.43333 6.47484 6.15 6.47484 5.80833V1.75833C6.47484 1.41666 6.75817 1.13333 7.09984 1.13333C7.4415 1.13333 7.72484 1.41666 7.72484 1.75833V5.80833C7.72484 6.15 7.4415 6.43333 7.09984 6.43333Z"/>
<path d="M12.8998 6.05833C12.5582 6.05833 12.2748 5.775 12.2748 5.43333V1.75833C12.2748 1.41666 12.5582 1.13333 12.8998 1.13333C13.2415 1.13333 13.5248 1.41666 13.5248 1.75833V5.43333C13.5248 5.78333 13.2498 6.05833 12.8998 6.05833Z"/>
<path d="M9.2415 15.1C8.9415 15.1 8.65817 15.025 8.39984 14.8833C7.83317 14.55 7.49984 13.8833 7.49984 13.0417V11.0417C7.49984 10.2 7.83317 9.525 8.40817 9.19166C8.98317 8.85833 9.73317 8.90833 10.4582 9.33333L12.1915 10.3333C12.9165 10.75 13.3415 11.375 13.3415 12.0417C13.3415 12.7083 12.9165 13.3333 12.1832 13.75L10.4498 14.75C10.0498 14.9833 9.63317 15.1 9.2415 15.1ZM9.24984 10.225C9.1665 10.225 9.0915 10.2417 9.03317 10.275C8.85817 10.375 8.74984 10.6583 8.74984 11.0417V13.0417C8.74984 13.4167 8.85817 13.7 9.03317 13.8083C9.20817 13.9083 9.50817 13.8583 9.83317 13.6667L11.5665 12.6667C11.8915 12.475 12.0915 12.2417 12.0915 12.0417C12.0915 11.8417 11.8998 11.6083 11.5665 11.4167L9.83317 10.4167C9.6165 10.2917 9.40817 10.225 9.24984 10.225Z"/>
</svg>
