<svg width="20" height="20" viewBox="0 0 20 20" xmlns="http://www.w3.org/2000/svg">
<path d="M12.4998 18.9583H7.49984C2.97484 18.9583 1.0415 17.025 1.0415 12.5V7.5C1.0415 2.975 2.97484 1.04166 7.49984 1.04166H12.4998C17.0248 1.04166 18.9582 2.975 18.9582 7.5V12.5C18.9582 17.025 17.0248 18.9583 12.4998 18.9583ZM7.49984 2.29166C3.65817 2.29166 2.2915 3.65833 2.2915 7.5V12.5C2.2915 16.3417 3.65817 17.7083 7.49984 17.7083H12.4998C16.3415 17.7083 17.7082 16.3417 17.7082 12.5V7.5C17.7082 3.65833 16.3415 2.29166 12.4998 2.29166H7.49984Z"/>
<path d="M8.9665 13.6417C8.6165 13.6417 8.2915 13.5583 7.99984 13.3917C7.33317 13.0083 6.94984 12.225 6.94984 11.2333V8.76666C6.94984 7.78333 7.33317 6.99166 7.99984 6.60833C8.6665 6.225 9.53317 6.28333 10.3915 6.78333L12.5332 8.01666C13.3832 8.50833 13.8748 9.23333 13.8748 10C13.8748 10.7667 13.3832 11.4917 12.5332 11.9833L10.3915 13.2167C9.90817 13.5 9.4165 13.6417 8.9665 13.6417ZM8.97484 7.60833C8.8415 7.60833 8.72484 7.63333 8.63317 7.69166C8.3665 7.85 8.20817 8.24166 8.20817 8.76666V11.2333C8.20817 11.7583 8.35817 12.15 8.63317 12.3083C8.89984 12.4667 9.3165 12.4 9.77484 12.1333L11.9165 10.9C12.3748 10.6333 12.6332 10.3083 12.6332 10C12.6332 9.69166 12.3748 9.35833 11.9165 9.1L9.77484 7.86666C9.47484 7.69166 9.19984 7.60833 8.97484 7.60833Z"/>
</svg>
