<svg width="149" height="44" fill="none" xmlns="http://www.w3.org/2000/svg"><rect x="1.29" y=".5" width="146.789" height="42.516" rx="5.247" fill="#000"/><path d="M57.617 29.427h-4.65l-1.13 3.096h-2.044l4.548-11.566h1.93l4.65 11.566h-2.138l-1.166-3.096Zm-4.059-1.582h3.464l-1.24-3.312c-.17-.456-.339-.962-.502-1.516-.151.49-.315.989-.49 1.5l-1.232 3.328Zm8.186-1.827c0-.638-.022-1.341-.064-2.11h1.85c.07.362.118.727.144 1.095a3.503 3.503 0 0 1 2.643-1.256 2.986 2.986 0 0 1 2.79 1.81c.325.747.48 1.558.452 2.373.02.888-.16 1.77-.529 2.578a3.695 3.695 0 0 1-1.443 1.62 4.133 4.133 0 0 1-2.145.55c-.591 0-1.178-.1-1.737-.295v3.568l-1.977.169.016-10.102Zm5.198 4.395c.401-.527.605-1.318.605-2.373 0-.961-.168-1.665-.502-2.11a1.586 1.586 0 0 0-1.322-.648 2.138 2.138 0 0 0-1.058.264 3.963 3.963 0 0 0-.928.725v4.614c.22.103.45.18.687.227.256.055.516.084.778.085a2.057 2.057 0 0 0 1.74-.784Zm3.82-4.395c0-.638-.022-1.341-.064-2.11h1.85c.073.362.121.727.146 1.095.77-.837 1.652-1.256 2.644-1.256a2.986 2.986 0 0 1 2.79 1.81c.325.747.48 1.558.452 2.373a5.905 5.905 0 0 1-.516 2.578 3.695 3.695 0 0 1-1.446 1.62 4.124 4.124 0 0 1-2.144.55c-.592 0-1.18-.1-1.737-.295v3.568l-1.978.169.003-10.102Zm5.206 4.395c.401-.54.602-1.33.602-2.373 0-.961-.166-1.665-.5-2.11a1.586 1.586 0 0 0-1.321-.648 2.149 2.149 0 0 0-1.058.264 3.963 3.963 0 0 0-.928.725v4.614c.22.103.45.179.688.227.255.055.515.084.777.085a2.061 2.061 0 0 0 1.74-.784Zm6.247 1.564a4.803 4.803 0 0 1-1.97-2.022 6.626 6.626 0 0 1-.687-3.115 6.5 6.5 0 0 1 .793-3.309 5.1 5.1 0 0 1 2.158-2.043 6.767 6.767 0 0 1 3.061-.683 8.03 8.03 0 0 1 1.91.221 8.115 8.115 0 0 1 1.691.601l-.513 1.517a7.037 7.037 0 0 0-3.011-.75 4.223 4.223 0 0 0-2.115.528 3.51 3.51 0 0 0-1.415 1.514 5.298 5.298 0 0 0-.502 2.41 5.853 5.853 0 0 0 .386 2.194c.243.62.672 1.15 1.227 1.518a3.71 3.71 0 0 0 2.115.56 7.187 7.187 0 0 0 1.153-.098c.368-.059.73-.152 1.08-.28v-2.352h-2.68v-1.532h4.603v4.876c-.668.31-1.367.548-2.086.71a9.758 9.758 0 0 1-2.173.247 6.155 6.155 0 0 1-3.025-.712Zm14.309.546a7.546 7.546 0 0 1-.138-1.142 3.81 3.81 0 0 1-1.187.923 3.539 3.539 0 0 1-1.652.38 3.117 3.117 0 0 1-1.36-.293 2.226 2.226 0 0 1-.97-.878 2.678 2.678 0 0 1-.362-1.432 2.447 2.447 0 0 1 .907-1.999c.603-.5 1.609-.748 3.017-.746.525 0 1.048.037 1.568.11v-.168c0-.76-.162-1.296-.487-1.608-.388-.333-.89-.5-1.401-.467a5.554 5.554 0 0 0-1.354.184 7.114 7.114 0 0 0-1.274.438l-.312-1.434a7.535 7.535 0 0 1 1.39-.44 8.182 8.182 0 0 1 1.828-.201 4.77 4.77 0 0 1 1.903.34c.532.234.965.647 1.224 1.166a4.75 4.75 0 0 1 .442 2.222v3.428c0 .352.021.892.063 1.62l-1.845-.003Zm-1.185-1.582a3.19 3.19 0 0 0 1.008-.736v-1.582c-.44-.052-.88-.081-1.322-.087-.816 0-1.381.132-1.695.395a1.318 1.318 0 0 0-.468 1.055 1.206 1.206 0 0 0 .341.944c.258.217.589.327.925.308a2.779 2.779 0 0 0 1.211-.297Zm4.495-.486V20.277l1.967-.158v9.986a1.24 1.24 0 0 0 .188.79.72.72 0 0 0 .597.23c.18-.008.357-.038.529-.09l.233 1.414a3.427 3.427 0 0 1-.685.18 4.69 4.69 0 0 1-.764.068c-1.377-.009-2.065-.756-2.065-2.242Zm4.92 0V20.277l1.97-.158v9.986a1.24 1.24 0 0 0 .188.79.72.72 0 0 0 .597.23c.18-.008.357-.038.529-.09l.23 1.414c-.22.083-.449.143-.682.18-.253.043-.51.066-.767.068-1.375-.009-2.063-.756-2.065-2.242Zm11.604-1.988h-5.65c.09 1.806.952 2.708 2.586 2.708a5.565 5.565 0 0 0 1.245-.147c.417-.097.825-.23 1.219-.396l.433 1.35a7.394 7.394 0 0 1-3.257.702 4.767 4.767 0 0 1-2.321-.528 3.326 3.326 0 0 1-1.423-1.492 5.316 5.316 0 0 1-.476-2.347 5.553 5.553 0 0 1 .505-2.458 3.67 3.67 0 0 1 1.404-1.582 3.952 3.952 0 0 1 2.078-.543 3.497 3.497 0 0 1 2.044.572c.546.378.969.907 1.216 1.522a5.39 5.39 0 0 1 .397 2.11v.53Zm-1.928-1.252a2.473 2.473 0 0 0-.528-1.545 1.586 1.586 0 0 0-1.24-.528 1.67 1.67 0 0 0-1.253.528 2.742 2.742 0 0 0-.653 1.54l3.674.005Zm3.424-1.142c0-.472-.024-1.195-.066-2.162h1.851a23.292 23.292 0 0 1 .15 1.669c.2-.336.426-.655.677-.955.219-.256.482-.47.778-.63a2.05 2.05 0 0 1 1.012-.245 2.72 2.72 0 0 1 .793.097l-.248 1.71a2.282 2.282 0 0 0-1.851.263 4.997 4.997 0 0 0-1.129 1.165v5.538h-1.967v-6.45Zm6.296 9.975a4.817 4.817 0 0 1-.712-.171l.36-1.437c.166.044.335.08.505.108.19.034.383.051.576.053.882 0 1.537-.562 1.967-1.685l.13-.32-3.186-8.685h2.115l1.618 4.854c.207.625.375 1.261.503 1.907.15-.623.325-1.245.528-1.867l1.613-4.894h1.991l-3.173 8.725a8.944 8.944 0 0 1-.97 1.996 3.38 3.38 0 0 1-1.227 1.124 3.674 3.674 0 0 1-1.71.369 5.409 5.409 0 0 1-.928-.077ZM49.794 9.946h3.516l-.098.85h-2.393v1.642h2.255v.791H50.82v1.82h2.52l-.087.862h-3.459V9.946Zm5.946 2.922-1.851-2.922h1.174l1.258 2.147 1.322-2.147h1.14l-1.851 2.885 2.001 3.08h-1.19l-1.425-2.347-1.451 2.347h-1.14l2.013-3.043Zm3.952-2.922h1.613c.756 0 1.336.154 1.74.462a1.584 1.584 0 0 1 .602 1.334c.011.363-.08.722-.264 1.036-.18.295-.442.532-.754.68a2.491 2.491 0 0 1-1.11.238 4.504 4.504 0 0 1-.793-.082v2.297h-1.034V9.946Zm2.59 2.664a1.079 1.079 0 0 0 .331-.842.911.911 0 0 0-.335-.79 1.696 1.696 0 0 0-.992-.243h-.56v2.11c.196.034.395.055.595.06.346.026.69-.08.962-.295Zm2.386-2.664h1.031v5.084h2.475l-.088.88h-3.418V9.947Zm5.076 5.672a2.476 2.476 0 0 1-1.005-1.055 3.42 3.42 0 0 1-.346-1.582 3.52 3.52 0 0 1 .37-1.65 2.577 2.577 0 0 1 1.058-1.092 3.315 3.315 0 0 1 1.652-.375 3.1 3.1 0 0 1 1.557.372c.431.244.778.611.997 1.055a3.42 3.42 0 0 1 .341 1.563 3.534 3.534 0 0 1-.373 1.67 2.61 2.61 0 0 1-1.057 1.091 3.31 3.31 0 0 1-1.626.385 3.085 3.085 0 0 1-1.568-.382Zm2.676-.73c.291-.193.518-.469.65-.792a2.98 2.98 0 0 0 .214-1.162 3.23 3.23 0 0 0-.19-1.148 1.695 1.695 0 0 0-.608-.79 2.053 2.053 0 0 0-2.14 0 1.85 1.85 0 0 0-.655.811c-.15.355-.225.736-.22 1.121-.006.396.064.79.207 1.16a1.7 1.7 0 0 0 1.684 1.103 1.84 1.84 0 0 0 1.058-.304Zm3.098-4.942h1.872a2.491 2.491 0 0 1 1.552.409 1.385 1.385 0 0 1 .529 1.165c.006.29-.06.576-.19.834a1.847 1.847 0 0 1-.471.588c-.175.14-.372.253-.582.332l1.85 2.637h-1.202l-1.558-2.373h-.758v2.373h-1.042V9.946Zm1.62 2.822c.23.005.458-.045.664-.146.186-.088.343-.228.452-.403.11-.186.165-.399.162-.614a.751.751 0 0 0-.286-.657 1.394 1.394 0 0 0-.83-.208h-.748v2.038l.587-.01Zm3.747-2.822h3.524l-.1.85h-2.38v1.642h2.235v.791h-2.256v1.82h2.52l-.077.862h-3.466V9.946Zm7.358 0h1.031v5.965h-1.03V9.946Zm3.762.86h-1.85l.09-.86h4.653l-.095.86h-1.764v5.105h-1.034v-5.105Zm7.375 4.812a2.47 2.47 0 0 1-1.003-1.055 3.385 3.385 0 0 1-.349-1.582 3.52 3.52 0 0 1 .37-1.65 2.59 2.59 0 0 1 1.058-1.092 3.33 3.33 0 0 1 1.642-.385 3.087 3.087 0 0 1 1.573.382c.431.243.779.61.997 1.055.236.487.354 1.022.343 1.563a3.502 3.502 0 0 1-.375 1.67c-.236.46-.604.84-1.058 1.091a3.29 3.29 0 0 1-1.626.385 3.086 3.086 0 0 1-1.573-.382Zm2.678-.73c.29-.194.515-.47.647-.792a2.97 2.97 0 0 0 .215-1.162 3.222 3.222 0 0 0-.191-1.147 1.685 1.685 0 0 0-.605-.792 2.058 2.058 0 0 0-2.142 0c-.292.203-.52.485-.656.813a2.814 2.814 0 0 0-.219 1.12c-.006.397.064.79.206 1.16.126.326.346.607.632.807.313.206.683.31 1.058.296.374.007.742-.098 1.055-.304Zm3.098-4.942h1.185l2.958 4.623c-.026-.44-.037-.844-.037-1.216V9.946h.957v5.965h-1.147l-3.004-4.696c.029.527.045 1.004.045 1.418v3.278h-.957V9.946Z" fill="#fff"/><path fill-rule="evenodd" clip-rule="evenodd" d="M35.252 9.978H24.277c-5.174 0-7.067 1.888-7.067 7.048V27.98c0 5.16 1.893 7.048 7.067 7.048h10.975c5.174 0 7.07-1.888 7.07-7.048V17.026c.005-5.16-1.888-7.048-7.07-7.048Z" fill="#C8102E"/><path d="M22.184 22.503h.666v3.277h-.666v-1.33h-1.505v1.331h-.666v-3.277h.666v1.318h1.505v-1.318Zm3.754 1.875c0 .527-.264.817-.745.817-.482 0-.751-.29-.751-.846v-1.846h-.667v1.872c0 .92.513 1.448 1.407 1.448s1.422-.528 1.422-1.477v-1.843h-.666v1.875Zm7.699.377-.746-2.252h-.547l-.74 2.254-.727-2.254h-.709l1.145 3.277h.553l.743-2.151.745 2.151h.558l1.145-3.277h-.693l-.727 2.252Zm2.612-.388h1.214v-.593h-1.214v-.67h1.761v-.601h-2.416v3.27h2.48v-.591h-1.825v-.815Zm2.618 1.405h.658v-3.27h-.658v3.27Zm-10.946-.677-.299.68h-.68l1.436-3.272h.587l1.441 3.272h-.687l-.283-.678-1.515-.002Zm.248-.59h1.003l-.503-1.172-.5 1.171Zm1.6-6.171a4.188 4.188 0 0 1-2.955-1.222 4.166 4.166 0 0 1-1.225-2.947h.59c0 .95.378 1.86 1.051 2.532a3.596 3.596 0 0 0 5.078 0 3.576 3.576 0 0 0 1.051-2.532h.59a4.166 4.166 0 0 1-1.225 2.947 4.188 4.188 0 0 1-2.955 1.222Z" fill="#fff"/><rect x="1.29" y=".5" width="146.789" height="42.516" rx="5.247" stroke="#3B374D"/></svg>