<svg width="148" height="44" fill="none" xmlns="http://www.w3.org/2000/svg"><rect x=".5" y=".5" width="146.789" height="42.516" rx="5.247" fill="#000"/><path d="M33.513 21.818a5.646 5.646 0 0 1 .744-2.729 5.694 5.694 0 0 1 1.978-2.034 5.838 5.838 0 0 0-2.01-1.778 5.88 5.88 0 0 0-2.6-.696c-1.94-.202-3.82 1.152-4.809 1.152-1.007 0-2.53-1.132-4.168-1.099a6.17 6.17 0 0 0-2.998.889 6.115 6.115 0 0 0-2.168 2.24c-2.234 3.84-.568 9.485 1.572 12.59 1.07 1.52 2.322 3.218 3.96 3.157 1.601-.066 2.2-1.014 4.134-1.014 1.916 0 2.477 1.014 4.147.976 1.72-.028 2.803-1.527 3.836-3.061a12.536 12.536 0 0 0 1.754-3.547 5.514 5.514 0 0 1-2.451-2.02c-.6-.897-.92-1.95-.921-3.026Zm-3.156-9.278a5.562 5.562 0 0 0 1.288-4.005 5.74 5.74 0 0 0-3.705 1.904 5.307 5.307 0 0 0-1.321 3.855 4.763 4.763 0 0 0 2.072-.45 4.729 4.729 0 0 0 1.666-1.305Zm23.408 17.122h-5.468l-1.313 3.85h-2.316l5.18-14.243h2.405l5.179 14.243h-2.356l-1.311-3.85Zm-4.902-1.776h4.334l-2.136-6.248H51l-2.138 6.247Zm19.753.434c0 3.227-1.74 5.3-4.364 5.3a3.565 3.565 0 0 1-1.908-.438 3.533 3.533 0 0 1-1.383-1.378h-.05v5.143h-2.146v-13.82h2.078v1.728h.04a3.698 3.698 0 0 1 1.409-1.375 3.73 3.73 0 0 1 1.92-.461c2.654 0 4.404 2.083 4.404 5.301Zm-2.206 0c0-2.102-1.095-3.484-2.764-3.484-1.64 0-2.743 1.41-2.743 3.484 0 2.093 1.103 3.494 2.743 3.494 1.67 0 2.764-1.372 2.764-3.494Zm13.716 0c0 3.227-1.74 5.3-4.364 5.3a3.565 3.565 0 0 1-1.908-.438 3.533 3.533 0 0 1-1.382-1.378h-.05v5.143h-2.147v-13.82h2.078v1.728h.04a3.698 3.698 0 0 1 1.41-1.375 3.73 3.73 0 0 1 1.92-.461c2.654 0 4.403 2.083 4.403 5.301Zm-2.206 0c0-2.102-1.094-3.484-2.764-3.484-1.64 0-2.743 1.41-2.743 3.484 0 2.093 1.103 3.494 2.743 3.494 1.67 0 2.764-1.372 2.764-3.494Zm9.813 1.223c.16 1.413 1.54 2.34 3.43 2.34 1.808 0 3.11-.927 3.11-2.2 0-1.107-.785-1.768-2.644-2.222l-1.859-.445c-2.634-.631-3.856-1.855-3.856-3.84 0-2.457 2.156-4.145 5.219-4.145 3.03 0 5.108 1.688 5.178 4.146h-2.167c-.13-1.422-1.313-2.28-3.042-2.28-1.729 0-2.912.868-2.912 2.132 0 1.007.756 1.6 2.604 2.053l1.58.385c2.944.691 4.166 1.865 4.166 3.949 0 2.664-2.137 4.333-5.537 4.333-3.18 0-5.329-1.63-5.467-4.206h2.197Zm13.44-8.873v2.457h1.989v1.688h-1.989v5.725c0 .89.399 1.304 1.273 1.304.236-.004.471-.02.706-.05v1.679a5.945 5.945 0 0 1-1.192.098c-2.118 0-2.943-.79-2.943-2.803v-5.953h-1.52v-1.688h1.52V20.67h2.156Zm3.14 7.65c0-3.267 1.938-5.32 4.96-5.32 3.032 0 4.961 2.053 4.961 5.32 0 3.277-1.919 5.32-4.961 5.32-3.041 0-4.96-2.044-4.96-5.32Zm7.734 0c0-2.241-1.034-3.564-2.774-3.564-1.739 0-2.772 1.333-2.772 3.564 0 2.25 1.033 3.563 2.772 3.563 1.74 0 2.774-1.313 2.774-3.563Zm3.957-5.192h2.047v1.767h.05a2.47 2.47 0 0 1 .922-1.381 2.506 2.506 0 0 1 1.593-.495c.248-.001.494.026.736.08v1.993a3.025 3.025 0 0 0-.965-.129 2.175 2.175 0 0 0-1.672.684 2.142 2.142 0 0 0-.565 1.706v6.159h-2.146V23.128Zm15.245 7.334c-.289 1.885-2.138 3.179-4.503 3.179-3.042 0-4.931-2.024-4.931-5.271 0-3.258 1.899-5.37 4.841-5.37 2.893 0 4.712 1.973 4.712 5.122v.73h-7.386v.13a2.697 2.697 0 0 0 1.685 2.743 2.74 2.74 0 0 0 1.129.197 2.379 2.379 0 0 0 1.451-.332c.435-.263.773-.659.964-1.128h2.038Zm-7.257-3.1h5.229a2.496 2.496 0 0 0-1.554-2.448 2.532 2.532 0 0 0-1.011-.187 2.666 2.666 0 0 0-1.885.767 2.624 2.624 0 0 0-.779 1.869ZM48.595 8.548a3.068 3.068 0 0 1 2.432.938 3.024 3.024 0 0 1 .81 2.462c0 2.187-1.19 3.443-3.242 3.443h-2.49V8.548h2.49Zm-1.42 5.876h1.3a2.18 2.18 0 0 0 1.727-.694 2.148 2.148 0 0 0 .546-1.768 2.144 2.144 0 0 0-.555-1.756 2.172 2.172 0 0 0-1.718-.691h-1.3v4.909Zm5.872-1.617a2.43 2.43 0 0 1 .63-1.879 2.462 2.462 0 0 1 1.823-.801 2.478 2.478 0 0 1 1.823.801 2.445 2.445 0 0 1 .63 1.879 2.432 2.432 0 0 1-.628 1.881 2.463 2.463 0 0 1-1.825.803 2.478 2.478 0 0 1-1.825-.803 2.445 2.445 0 0 1-.628-1.881Zm3.85 0c0-1.12-.507-1.774-1.396-1.774-.892 0-1.394.654-1.394 1.774 0 1.128.502 1.778 1.394 1.778.89 0 1.396-.654 1.396-1.778Zm7.577 2.584h-1.065l-1.075-3.803h-.081l-1.07 3.803h-1.056l-1.433-5.164h1.041l.932 3.94h.076l1.07-3.94h.984l1.07 3.94h.081l.927-3.94h1.027l-1.428 5.164Zm2.633-5.164h.989v.82h.076a1.557 1.557 0 0 1 1.552-.92 1.702 1.702 0 0 1 1.366.53 1.679 1.679 0 0 1 .435 1.39v3.344h-1.027v-3.087c0-.83-.363-1.243-1.122-1.243a1.2 1.2 0 0 0-.924.371 1.184 1.184 0 0 0-.318.938v3.021h-1.027v-5.164ZM73.16 8.21h1.027v7.181H73.16v-7.18Zm2.454 4.597a2.432 2.432 0 0 1 .63-1.879 2.462 2.462 0 0 1 1.823-.801 2.478 2.478 0 0 1 1.823.801 2.443 2.443 0 0 1 .63 1.879 2.432 2.432 0 0 1-.628 1.881 2.463 2.463 0 0 1-1.825.803 2.479 2.479 0 0 1-1.825-.803 2.443 2.443 0 0 1-.628-1.881Zm3.85 0c0-1.12-.507-1.774-1.396-1.774-.892 0-1.394.654-1.394 1.774 0 1.128.502 1.778 1.394 1.778.889 0 1.395-.654 1.395-1.778ZM81.6 13.93c0-.929.697-1.465 1.935-1.541l1.408-.08v-.446c0-.546-.363-.854-1.064-.854-.573 0-.97.209-1.084.574H81.8c.105-.887.945-1.456 2.125-1.456 1.304 0 2.04.645 2.04 1.736v3.528h-.989v-.725h-.08a1.746 1.746 0 0 1-1.563.81 1.58 1.58 0 0 1-1.596-.913 1.552 1.552 0 0 1-.138-.632Zm3.343-.44v-.432l-1.27.08c-.716.048-1.04.29-1.04.745 0 .465.405.736.964.736a1.234 1.234 0 0 0 1.217-.662 1.21 1.21 0 0 0 .13-.468Zm2.371-.683c0-1.632.845-2.666 2.16-2.666a1.723 1.723 0 0 1 1.594.906h.077V8.21h1.027v7.181h-.984v-.816h-.081a1.8 1.8 0 0 1-1.634.902c-1.323 0-2.159-1.034-2.159-2.67Zm1.06 0c0 1.095.52 1.755 1.39 1.755.866 0 1.4-.67 1.4-1.75 0-1.077-.54-1.755-1.4-1.755-.864 0-1.39.663-1.39 1.75Zm8.045 0a2.43 2.43 0 0 1 .63-1.879 2.464 2.464 0 0 1 1.823-.801 2.478 2.478 0 0 1 1.823.801 2.432 2.432 0 0 1 .629 1.879 2.422 2.422 0 0 1-.627 1.881 2.464 2.464 0 0 1-1.825.803 2.478 2.478 0 0 1-1.826-.803 2.446 2.446 0 0 1-.627-1.881Zm3.85 0c0-1.12-.507-1.774-1.396-1.774-.892 0-1.394.654-1.394 1.774 0 1.128.502 1.778 1.394 1.778.89 0 1.396-.654 1.396-1.778Zm2.433-2.58h.988v.82h.076a1.557 1.557 0 0 1 1.553-.92 1.7 1.7 0 0 1 1.365.53 1.672 1.672 0 0 1 .435 1.39v3.344h-1.027v-3.087c0-.83-.363-1.243-1.122-1.243a1.202 1.202 0 0 0-.924.371 1.183 1.183 0 0 0-.318.938v3.021h-1.026v-5.164Zm10.217-1.287v1.31h1.127v.859h-1.127v2.655c0 .541.224.778.735.778.131 0 .262-.008.392-.023v.849a3.4 3.4 0 0 1-.559.052c-1.141 0-1.596-.399-1.596-1.395V11.11h-.826v-.859h.826V8.94h1.028Zm2.529-.73h1.017v2.847h.081a1.596 1.596 0 0 1 1.586-.926 1.722 1.722 0 0 1 1.352.545 1.7 1.7 0 0 1 .44 1.38v3.335h-1.028v-3.083c0-.825-.387-1.242-1.112-1.242a1.22 1.22 0 0 0-1.242.792c-.06.165-.083.342-.068.517v3.016h-1.026v-7.18Zm10.461 5.787c-.139.472-.442.88-.854 1.153a2.122 2.122 0 0 1-1.4.341 2.36 2.36 0 0 1-2.321-1.66 2.315 2.315 0 0 1-.081-1.006 2.358 2.358 0 0 1 .579-1.892 2.392 2.392 0 0 1 1.819-.806c1.447 0 2.32.982 2.32 2.603v.356h-3.673v.057a1.36 1.36 0 0 0 .828 1.37c.176.074.366.112.557.11a1.255 1.255 0 0 0 1.238-.626h.988Zm-3.611-1.665h2.627a1.234 1.234 0 0 0-.341-.95 1.265 1.265 0 0 0-.939-.388 1.338 1.338 0 0 0-1.249.824c-.067.163-.1.338-.098.514Z" fill="#fff"/><rect x=".5" y=".5" width="146.789" height="42.516" rx="5.247" stroke="#3B374D"/></svg>