<svg width="148" height="45" fill="none" xmlns="http://www.w3.org/2000/svg"><rect x=".5" y="1.016" width="146.789" height="42.516" rx="5.247" fill="#000"/><path d="M77.385 16.812c-.898 0-1.656-.316-2.255-.937a3.197 3.197 0 0 1-.91-2.286c0-.907.307-1.675.91-2.284.597-.621 1.354-.937 2.252-.937.889 0 1.646.316 2.255.937.604.629.91 1.397.91 2.284-.01.91-.316 1.677-.91 2.284-.597.626-1.354.939-2.252.939Zm-26.73 0c-.878 0-1.64-.31-2.264-.925-.618-.61-.932-1.384-.932-2.296 0-.912.314-1.684.932-2.296.612-.614 1.374-.924 2.265-.924.435 0 .858.087 1.264.263.399.172.723.405.963.691l.06.072-.671.661-.07-.082c-.378-.452-.886-.673-1.556-.673-.599 0-1.121.213-1.552.636-.433.425-.653.981-.653 1.655 0 .673.22 1.23.653 1.655.43.422.953.636 1.552.636.638 0 1.175-.214 1.594-.636.247-.249.4-.597.455-1.037h-2.15v-.929h3.073l.012.085c.023.156.045.318.045.467 0 .857-.258 1.55-.767 2.062-.58.607-1.337.915-2.252.915Zm35.54-.132h-.948l-2.903-4.664.025.84v3.822h-.948v-6.175h1.081l.03.047 2.73 4.393-.025-.837v-3.603h.958v6.177Zm-15.932 0h-.96v-5.248h-1.666v-.93h4.289v.93H70.26v5.248h.003Zm-3.408 0h-.958v-6.177h.958v6.177Zm-5.382 0h-.958v-5.248h-1.666v-.93h4.29v.93h-1.666v5.248Zm-3.23-.01h-3.672v-6.167h3.672v.929h-2.712v1.695h2.447v.92h-2.447v1.694h2.712v.93Zm17.59-1.434c.428.43.948.646 1.552.646.621 0 1.128-.21 1.551-.646.421-.422.634-.976.634-1.645 0-.668-.213-1.225-.631-1.645a2.119 2.119 0 0 0-1.552-.646c-.62 0-1.128.211-1.549.646-.42.423-.633.977-.633 1.645 0 .669.21 1.225.628 1.645Z" fill="#fff"/><path fill-rule="evenodd" clip-rule="evenodd" d="M74.131 25.305c-2.339 0-4.234 1.782-4.234 4.24 0 2.435 1.908 4.239 4.234 4.239 2.339 0 4.234-1.794 4.234-4.24 0-2.457-1.895-4.239-4.234-4.239Zm0 6.799c-1.28 0-2.38-1.064-2.38-2.57 0-1.528 1.103-2.569 2.38-2.569 1.28 0 2.38 1.041 2.38 2.57.003 1.515-1.1 2.569-2.38 2.569Zm-9.238-6.799c-2.339 0-4.234 1.782-4.234 4.24 0 2.435 1.908 4.239 4.234 4.239 2.338 0 4.234-1.794 4.234-4.24 0-2.457-1.898-4.239-4.234-4.239Zm0 6.799c-1.28 0-2.38-1.064-2.38-2.57 0-1.528 1.103-2.569 2.38-2.569 1.28 0 2.38 1.041 2.38 2.57 0 1.515-1.1 2.569-2.38 2.569ZM53.9 26.6v1.794h4.289c-.131 1.006-.463 1.75-.97 2.259-.629.63-1.599 1.317-3.309 1.317-2.635 0-4.697-2.137-4.697-4.784 0-2.646 2.062-4.783 4.697-4.783 1.423 0 2.46.564 3.23 1.285l1.267-1.273c-1.07-1.028-2.492-1.816-4.487-1.816-3.616 0-6.65 2.957-6.65 6.577 0 3.63 3.032 6.578 6.65 6.578 1.953 0 3.418-.641 4.576-1.849 1.18-1.185 1.554-2.858 1.554-4.207 0-.42-.032-.797-.1-1.118h-6.052c.002-.002.002.02.002.02Zm44.963 1.396c-.354-.951-1.423-2.7-3.615-2.7-2.173 0-3.98 1.716-3.98 4.239 0 2.38 1.787 4.239 4.19 4.239 1.93 0 3.054-1.185 3.517-1.881l-1.433-.964c-.475.708-1.136 1.173-2.074 1.173-.948 0-1.611-.433-2.052-1.285l5.645-2.349c0 .003-.198-.472-.198-.472Zm-5.756 1.417c-.045-1.638 1.267-2.47 2.205-2.47.74 0 1.356.365 1.566.897l-3.771 1.573Zm-4.586 4.107h1.854V21.066H88.52V33.52Zm-3.043-7.273h-.067c-.419-.5-1.213-.952-2.228-.952-2.106 0-4.046 1.861-4.046 4.252 0 2.38 1.93 4.22 4.046 4.22 1.003 0 1.81-.455 2.228-.965h.067v.609c0 1.618-.862 2.49-2.25 2.49-1.136 0-1.841-.82-2.128-1.506l-1.611.676c.462 1.118 1.697 2.502 3.736 2.502 2.173 0 4.015-1.285 4.015-4.418V25.55h-1.753v.698h-.01Zm-2.129 5.857c-1.28 0-2.348-1.073-2.348-2.557 0-1.496 1.069-2.58 2.348-2.58 1.267 0 2.25 1.097 2.25 2.58.012 1.483-.98 2.557-2.25 2.557Zm24.193-11.038h-4.432V33.52h1.853v-4.716h2.581c2.052 0 4.069-1.493 4.069-3.864 0-2.37-2.01-3.874-4.071-3.874Zm.054 5.999h-2.635V22.79h2.635c1.389 0 2.173 1.15 2.173 2.137 0 .976-.794 2.137-2.173 2.137Zm11.446-1.782c-1.346 0-2.735.599-3.309 1.903l1.643.686c.354-.686 1.003-.92 1.688-.92.96 0 1.93.577 1.953 1.606v.132c-.332-.19-1.059-.477-1.931-.477-1.774 0-3.573.974-3.573 2.8 0 1.672 1.455 2.746 3.076 2.746 1.245 0 1.93-.564 2.358-1.218h.067v.964h1.787v-4.77c0-2.222-1.643-3.452-3.759-3.452Zm-.233 6.82c-.606 0-1.455-.297-1.455-1.063 0-.964 1.059-1.329 1.963-1.329.816 0 1.202.176 1.687.42a2.234 2.234 0 0 1-2.195 1.973Zm10.51-6.554-2.128 5.402h-.067l-2.205-5.402h-1.994l3.308 7.551-1.885 4.197h1.93l5.09-11.748h-2.049Zm-16.684 7.971h1.853V21.066h-1.853V33.52Z" fill="#fff"/><path fill-rule="evenodd" clip-rule="evenodd" d="M16.874 11.134c-.287.31-.453.785-.453 1.406v22.034c0 .621.166 1.096.463 1.394l.076.067L29.255 23.69v-.276L16.95 11.067l-.077.067Z" fill="url(#a)"/><path fill-rule="evenodd" clip-rule="evenodd" d="m33.345 27.817-4.1-4.117v-.288l4.1-4.118.09.055 4.85 2.768c1.388.785 1.388 2.082 0 2.877l-4.85 2.769-.09.054Z" fill="url(#b)"/><path fill-rule="evenodd" clip-rule="evenodd" d="m33.434 27.763-4.19-4.207-12.37 12.422c.452.487 1.212.542 2.061.067l14.5-8.282Z" fill="url(#c)"/><path fill-rule="evenodd" clip-rule="evenodd" d="m33.434 19.349-14.499-8.27c-.849-.487-1.611-.42-2.061.067l12.37 12.41 4.19-4.207Z" fill="url(#d)"/><path opacity=".2" fill-rule="evenodd" clip-rule="evenodd" d="m33.346 27.673-14.4 8.215c-.805.465-1.523.433-1.986.01l-.076.077.076.067c.463.42 1.18.455 1.985-.01l14.5-8.27-.1-.089Z" fill="#000"/><path opacity=".12" fill-rule="evenodd" clip-rule="evenodd" d="m38.285 24.85-4.952 2.823.09.09 4.85-2.768c.695-.398 1.036-.92 1.036-1.44-.042.478-.395.93-1.024 1.296Z" fill="#000"/><path opacity=".25" fill-rule="evenodd" clip-rule="evenodd" d="m18.935 11.223 19.35 11.038c.629.356.982.82 1.037 1.295 0-.52-.342-1.041-1.037-1.439L18.935 11.08c-1.388-.797-2.514-.131-2.514 1.461v.145c0-1.596 1.126-2.25 2.514-1.462Z" fill="#fff"/><rect x=".5" y="1.016" width="146.789" height="42.516" rx="5.247" stroke="#3B374D"/><defs><linearGradient id="a" x1="28.152" y1="12.303" x2="8.448" y2="17.531" gradientUnits="userSpaceOnUse"><stop stop-color="#00A0FF"/><stop offset=".007" stop-color="#00A1FF"/><stop offset=".26" stop-color="#00BEFF"/><stop offset=".512" stop-color="#00D2FF"/><stop offset=".76" stop-color="#00DFFF"/><stop offset="1" stop-color="#00E3FF"/></linearGradient><linearGradient id="b" x1="40.095" y1="23.556" x2="16.083" y2="23.556" gradientUnits="userSpaceOnUse"><stop stop-color="#FFE000"/><stop offset=".409" stop-color="#FFBD00"/><stop offset=".775" stop-color="orange"/><stop offset="1" stop-color="#FF9C00"/></linearGradient><linearGradient id="c" x1="31.156" y1="25.845" x2="15.25" y2="52.506" gradientUnits="userSpaceOnUse"><stop stop-color="#FF3A44"/><stop offset="1" stop-color="#C31162"/></linearGradient><linearGradient id="d" x1="13.758" y1="3.805" x2="20.855" y2="15.713" gradientUnits="userSpaceOnUse"><stop stop-color="#32A071"/><stop offset=".069" stop-color="#2DA771"/><stop offset=".476" stop-color="#15CF74"/><stop offset=".801" stop-color="#06E775"/><stop offset="1" stop-color="#00F076"/></linearGradient></defs></svg>