<svg width="210" height="41" fill="none" xmlns="http://www.w3.org/2000/svg"><g clip-path="url(#a)" fill-rule="evenodd" clip-rule="evenodd"><path d="M80.546 17.1c1.126-1.026 1.162-2.551 1.162-3.578V.734h4.644V14.05c0 1.731-.282 3.666-2.147 5.25-2.463 2.112-6.297 2.2-8.548 2.2-2.252 0-6.086-.088-8.55-2.2-1.864-1.584-2.145-3.52-2.145-5.25V.734h4.644v12.788c0 1.144.035 2.522 1.196 3.579 1.301 1.173 3.412 1.32 4.855 1.32 1.337 0 3.623-.147 4.89-1.32Zm9.324 4.165V3.815c0-.764 0-1.585.844-2.289.81-.674 1.936-.792 2.78-.792h11.714c1.302 0 3.377 0 4.89 1.232 1.689 1.35 1.865 3.666 1.865 5.397 0 1.672-.211 4.311-2.146 5.632-.915.616-2.322.997-3.765.997H94.514v7.273H89.87Zm13.474-10.353c1.02 0 2.216 0 3.025-.763.739-.704.809-2.023.809-2.815 0-.91-.105-2.141-.88-2.816-.809-.675-2.111-.704-2.884-.704h-7.493c-.317 0-.739-.03-1.09.264-.317.263-.317.616-.317.968v5.866h8.83Zm14.6 10.353c-.809 0-1.724-.146-2.286-.528a2.028 2.028 0 0 1-.88-1.7V.733h4.643V17.07c0 .235-.035.616.317.88.141.088.422.235 1.161.235h13.509v3.08h-16.464ZM156.151 2.67c2.568 2.053 2.814 5.632 2.814 8.33 0 2.698-.282 6.276-2.814 8.33-2.674 2.17-6.965 2.17-9.815 2.17-2.92 0-7.107 0-9.816-2.17-2.849-2.287-2.849-6.013-2.849-8.33 0-2.786.176-6.218 2.849-8.33C139.265.5 143.346.5 146.336.5c2.92 0 7.106 0 9.815 2.17Zm-16.183 14.05c1.442 1.554 3.764 1.7 6.332 1.7 2.533 0 4.89-.146 6.368-1.7.809-.851 1.513-2.406 1.513-5.72 0-3.55-.74-4.957-1.513-5.749-1.442-1.496-3.87-1.672-6.368-1.672-2.568 0-4.89.176-6.332 1.672-.95.997-1.513 2.61-1.513 5.749.001 3.344.704 4.868 1.513 5.72Zm28.637-13.903c.88-1.731 1.829-2.317 4.046-2.317 2.111 0 3.166.586 4.045 2.317l9.288 18.448h-4.89l-2.533-5.191h-11.856l-2.497 5.191h-4.89l9.287-18.448Zm-.704 10.5h9.464l-4.01-8.359c-.141-.293-.388-.85-.704-.85-.317 0-.563.557-.704.85l-4.046 8.36Zm22.904 7.948c-1.83 0-2.568-.44-2.744-.557-.458-.293-1.02-.91-1.02-2.053V4.02c0-.762.035-1.643.844-2.405.352-.322 1.162-.88 2.638-.88h9.64c3.412 0 5.734 1.086 7.212 2.435 2.392 2.2 2.497 5.133 2.497 7.596 0 2.23-.176 5.749-2.181 7.978-.984 1.085-3.025 2.522-6.895 2.522h-9.991Zm.881-4.487c0 .41-.037.792.315 1.114.317.294.775.294 1.196.294h5.348c2.57 0 4.255-.47 5.312-1.907.599-.791 1.232-2.316 1.232-5.807 0-1.76-.175-3.813-1.725-5.162-1.405-1.231-3.623-1.495-5.277-1.495h-4.819c-.282 0-.774 0-1.091.205a1.236 1.236 0 0 0-.491 1.026v11.732Zm-42.492-6.244-4.104-2.508-.068-.042a.522.522 0 0 0-.228-.05.371.371 0 0 0-.414.307v5.295a.371.371 0 0 0 .414.307.515.515 0 0 0 .235-.054l.056-.034 4.109-2.512a.392.392 0 0 0 0-.71Z" fill="#fff"/><path d="M18.844 19.037c-.704 1.554-1.336 2.463-3.516 2.463-2.355 0-2.918-1.173-3.516-2.463L5.52 5.34c-.105-.234-.386-.674-.597-.674-.387 0-.387.528-.387.616l.106 15.984H0V3.198C0 .53 3.27.5 3.973.5 6.82.5 7.629 1.702 8.297 3.14l6.363 13.696c.21.44.457.762.668.762.211 0 .457-.322.668-.762L22.359 3.14C23.414.823 24.925.5 26.683.5c2.286 0 3.973.821 3.973 2.698v18.067h-4.64l.14-15.985c0-.557-.281-.615-.422-.615-.246 0-.492.44-.598.674l-6.292 13.697Zm15.328 2.228V.735h4.64v20.53h-4.64Zm24.364 0-6.574-7.685-6.575 7.685h-5.519l9.457-10.412L40.149.734h5.52l6.293 7.392L58.255.734h5.519l-9.176 10.119 9.457 10.412h-5.52Z" fill="#E81943"/></g><path d="M3.95 38.5H.586v-7.046h3.276c.694 0 1.237.156 1.631.469.394.312.591.742.591 1.289 0 .39-.132.73-.396 1.015-.26.287-.587.458-.981.513v.04a1.79 1.79 0 0 1 1.211.512c.329.319.493.711.493 1.177 0 .618-.223 1.111-.669 1.48-.443.367-1.04.551-1.792.551Zm-1.572-5.776v1.601H3.3c.325 0 .58-.071.761-.215a.724.724 0 0 0 .279-.6c0-.248-.085-.44-.254-.576-.166-.14-.399-.21-.698-.21h-1.01Zm0 4.507h1.064c.371 0 .655-.079.85-.235.199-.16.298-.387.298-.684 0-.286-.101-.507-.303-.664-.202-.156-.487-.234-.854-.234H2.378v1.816Zm9.82-.176V38.5h-4.83v-7.046h4.83V32.9H9.16v1.402h2.856v1.318H9.16v1.436h3.037Zm.985-.596h1.704c.033.238.168.431.406.581.24.15.529.225.864.225.345 0 .623-.069.835-.205.211-.14.317-.318.317-.533a.511.511 0 0 0-.249-.454c-.163-.11-.446-.208-.85-.293l-.922-.18c-.648-.124-1.138-.357-1.47-.699-.332-.345-.498-.786-.498-1.323 0-.677.26-1.22.781-1.63.524-.41 1.198-.616 2.022-.616.872 0 1.557.197 2.055.59.502.391.757.92.767 1.588h-1.65a.756.756 0 0 0-.342-.6c-.212-.147-.482-.22-.81-.22-.313 0-.566.065-.758.195a.6.6 0 0 0-.283.517c0 .19.082.342.244.46.166.113.435.208.806.282l.913.171c.693.134 1.203.363 1.528.689.326.325.489.767.489 1.323 0 .7-.269 1.258-.806 1.675-.537.413-1.26.62-2.168.62-.902 0-1.613-.19-2.134-.571-.517-.381-.781-.912-.79-1.592ZM23.544 38.5h-1.787v-5.6h-1.943v-1.446h5.674V32.9h-1.944v5.6Zm9.429-4.4-1.187 4.4h-1.69l-1.84-7.046h1.85l.953 4.76h.039l1.176-4.76h1.436l1.177 4.76h.039l.952-4.76h1.85l-1.84 7.046h-1.69l-1.186-4.4h-.04Zm10.517 2.955V38.5h-4.83v-7.046h4.83V32.9h-3.037v1.402h2.856v1.318h-2.856v1.436h3.037Zm4.575 1.445h-3.364v-7.046h3.276c.694 0 1.237.156 1.631.469.394.312.59.742.59 1.289 0 .39-.131.73-.395 1.015-.26.287-.587.458-.981.513v.04a1.79 1.79 0 0 1 1.21.512c.33.319.494.711.494 1.177 0 .618-.223 1.111-.669 1.48-.443.367-1.04.551-1.792.551Zm-1.572-5.776v1.601h.923c.325 0 .58-.071.761-.215a.724.724 0 0 0 .279-.6c0-.248-.085-.44-.254-.576-.166-.14-.399-.21-.698-.21h-1.011Zm0 4.507h1.064c.371 0 .654-.079.85-.235.198-.16.298-.387.298-.684 0-.286-.101-.507-.303-.664-.202-.156-.487-.234-.855-.234h-1.054v1.816Zm4.765-.772h1.704c.033.238.168.431.406.581.24.15.529.225.864.225.345 0 .623-.069.835-.205.211-.14.317-.318.317-.533a.511.511 0 0 0-.249-.454c-.163-.11-.446-.208-.85-.293l-.922-.18c-.648-.124-1.138-.357-1.47-.699-.332-.345-.498-.786-.498-1.323 0-.677.26-1.22.781-1.63.524-.41 1.198-.616 2.022-.616.872 0 1.557.197 2.055.59.502.391.757.92.767 1.588h-1.65a.756.756 0 0 0-.342-.6c-.212-.147-.482-.22-.81-.22-.313 0-.566.065-.758.195a.6.6 0 0 0-.283.517c0 .19.081.342.244.46.166.113.435.208.806.282l.913.171c.693.134 1.203.363 1.528.689.326.325.489.767.489 1.323 0 .7-.269 1.258-.806 1.675-.537.413-1.26.62-2.168.62-.902 0-1.613-.19-2.134-.571-.517-.381-.781-.912-.79-1.592Zm8.73 2.041h-1.791v-7.046h1.791V38.5Zm4.693 0h-1.787v-5.6H60.95v-1.446h5.674V32.9h-1.943v5.6Zm7.729-1.445V38.5h-4.83v-7.046h4.83V32.9h-3.037v1.402h2.856v1.318h-2.856v1.436h3.037Zm5.146 1.445h-1.792v-7.046h4.795V32.9h-3.003v1.602h2.73v1.372h-2.73V38.5Zm4.736-6.187c.628-.654 1.476-.981 2.544-.981s1.914.327 2.54.981c.624.655.937 1.543.937 2.666s-.313 2.012-.938 2.666c-.625.651-1.471.977-2.539.977-1.07 0-1.919-.325-2.544-.977-.625-.654-.937-1.543-.937-2.666s.312-2.011.937-2.666Zm3.745 1.07a1.43 1.43 0 0 0-1.2-.596c-.502 0-.904.199-1.207.596-.3.394-.45.926-.45 1.596 0 .668.15 1.2.45 1.597.3.394.702.591 1.206.591.501 0 .902-.197 1.201-.59.303-.398.454-.93.454-1.597 0-.671-.151-1.203-.454-1.597Zm5.142-.576v2.002h1.05c.328 0 .585-.09.771-.269.186-.179.278-.422.278-.727 0-.303-.096-.546-.288-.728-.192-.186-.447-.278-.766-.278h-1.045Zm0 3.227V38.5h-1.792v-7.046h3.017c.873 0 1.542.204 2.007.61.466.407.698.979.698 1.714 0 .443-.107.845-.322 1.206-.212.358-.506.62-.884.786l1.411 2.73h-2.011l-1.211-2.466h-.913Zm7.172-4.58h2.862c1.07 0 1.901.301 2.49.903.592.603.888 1.462.888 2.578 0 1.124-.297 2-.893 2.627-.593.626-1.421.938-2.485.938h-2.862v-7.046Zm1.792 1.445v4.156h.835c.586 0 1.03-.178 1.333-.532.306-.355.459-.883.459-1.583 0-.657-.156-1.162-.469-1.513-.312-.352-.753-.528-1.323-.528h-.835Zm5.107 3.306h1.724c.003.28.08.503.23.669.153.163.358.244.615.244.263 0 .465-.081.605-.244.14-.166.21-.405.21-.718v-4.702h1.787v4.712c0 .788-.228 1.397-.683 1.826-.453.427-1.086.64-1.9.64-.791 0-1.421-.218-1.889-.654-.466-.437-.699-1.028-.699-1.773Zm6.294.254h1.704c.033.238.168.431.406.581.24.15.528.225.864.225.345 0 .623-.069.835-.205.211-.14.317-.318.317-.533a.511.511 0 0 0-.249-.454c-.163-.11-.446-.208-.85-.293l-.922-.18c-.648-.124-1.138-.357-1.47-.699-.332-.345-.498-.786-.498-1.323 0-.677.26-1.22.781-1.63.524-.41 1.198-.616 2.022-.616.872 0 1.557.197 2.055.59.502.391.757.92.767 1.588h-1.651a.756.756 0 0 0-.341-.6c-.212-.147-.482-.22-.811-.22-.312 0-.565.065-.757.195a.6.6 0 0 0-.283.517.54.54 0 0 0 .244.46c.166.113.435.208.806.282l.913.171c.693.134 1.203.363 1.528.689.326.325.489.767.489 1.323 0 .7-.269 1.258-.806 1.675-.537.413-1.26.62-2.168.62-.902 0-1.613-.19-2.134-.571-.517-.381-.781-.912-.791-1.592Zm8.115 3.657h-1.255l.308-2.89h1.597l-.65 2.89Zm6.66-1.494c-1.061 0-1.898-.32-2.51-.962-.609-.644-.913-1.54-.913-2.685 0-1.143.306-2.035.918-2.676.612-.645 1.447-.967 2.505-.967a3.55 3.55 0 0 1 1.602.357c.478.234.857.566 1.137.996.283.426.433.913.449 1.46h-1.723c-.043-.414-.199-.746-.469-.997a1.4 1.4 0 0 0-.996-.38c-.492 0-.881.197-1.167.59-.287.394-.43.931-.43 1.612 0 .69.143 1.232.43 1.626.286.394.677.59 1.172.59.394 0 .722-.12.986-.36.267-.242.428-.569.484-.982h1.723c-.042.833-.358 1.505-.947 2.016-.589.508-1.34.762-2.251.762Zm6.03-5.815v2.002h1.05c.329 0 .586-.09.771-.269.186-.179.279-.422.279-.727 0-.303-.096-.546-.288-.728-.193-.186-.448-.278-.767-.278h-1.045Zm0 3.227V38.5h-1.792v-7.046h3.018c.872 0 1.541.204 2.006.61.466.407.699.979.699 1.714 0 .443-.108.845-.323 1.206-.211.358-.506.62-.883.786l1.411 2.73h-2.012l-1.211-2.466h-.913Zm9.858 1.02V38.5h-4.829v-7.046h4.829V32.9h-3.037v1.402h2.857v1.318h-2.857v1.436h3.037Zm5.845 1.446-.445-1.548h-2.304l-.449 1.548h-1.827l2.369-7.046h2.192l2.368 7.046h-1.904Zm-1.616-5.552-.787 2.715h1.607l-.781-2.715h-.039Zm6.884 5.552h-1.787v-5.6h-1.943v-1.446h5.673V32.9h-1.943v5.6Zm7.729-1.445V38.5h-4.829v-7.046h4.829V32.9h-3.037v1.402h2.857v1.318h-2.857v1.436h3.037Zm1.211-5.6h2.861c1.071 0 1.902.3 2.491.902.592.603.888 1.462.888 2.578 0 1.124-.297 2-.893 2.627-.593.626-1.421.938-2.486.938h-2.861v-7.046Zm1.792 1.444v4.156h.835c.586 0 1.03-.178 1.333-.532.306-.355.459-.883.459-1.583 0-.657-.156-1.162-.469-1.513-.312-.352-.753-.528-1.323-.528h-.835Zm11.025 5.601h-3.364v-7.046h3.276c.694 0 1.237.156 1.631.469.394.312.591.742.591 1.289 0 .39-.132.73-.396 1.015a1.58 1.58 0 0 1-.981.513v.04a1.79 1.79 0 0 1 1.211.512c.329.319.493.711.493 1.177 0 .618-.223 1.111-.669 1.48-.443.367-1.04.551-1.792.551Zm-1.572-5.776v1.601h.923c.325 0 .579-.071.761-.215a.723.723 0 0 0 .279-.6c0-.248-.085-.44-.254-.576-.166-.14-.399-.21-.698-.21h-1.011Zm0 4.507h1.064c.371 0 .655-.079.85-.235.199-.16.298-.387.298-.684 0-.286-.101-.507-.303-.664-.202-.156-.487-.234-.854-.234h-1.055v1.816Zm8.593 1.269h-1.792v-2.422l-2.426-4.624h1.924l1.401 2.93h.034l1.397-2.93h1.889l-2.427 4.624V38.5Zm5.449-7.046h2.862c1.071 0 1.901.301 2.49.903.592.603.889 1.462.889 2.578 0 1.124-.298 2-.894 2.627-.592.626-1.421.938-2.485.938h-2.862v-7.046Zm1.792 1.445v4.156h.835c.586 0 1.03-.178 1.333-.532.306-.355.459-.883.459-1.583 0-.657-.156-1.162-.469-1.513-.312-.352-.753-.528-1.323-.528h-.835Zm5.107 3.306h1.724c.003.28.08.503.23.669.153.163.358.244.615.244.264 0 .465-.081.605-.244.14-.166.21-.405.21-.718v-4.702h1.787v4.712c0 .788-.227 1.397-.683 1.826-.453.427-1.086.64-1.9.64-.791 0-1.421-.218-1.889-.654-.466-.437-.699-1.028-.699-1.773Zm6.294.254h1.704c.033.238.168.431.406.581.24.15.529.225.864.225.345 0 .623-.069.835-.205.211-.14.317-.318.317-.533a.511.511 0 0 0-.249-.454c-.163-.11-.446-.208-.849-.293l-.923-.18c-.648-.124-1.138-.357-1.47-.699-.332-.345-.498-.786-.498-1.323 0-.677.26-1.22.781-1.63.524-.41 1.198-.616 2.022-.616.872 0 1.557.197 2.055.59.502.391.757.92.767 1.588h-1.65a.76.76 0 0 0-.342-.6c-.212-.147-.482-.22-.811-.22-.312 0-.565.065-.757.195a.603.603 0 0 0-.283.517c0 .19.082.342.244.46.166.113.435.208.806.282l.913.171c.693.134 1.203.363 1.528.689.326.325.489.767.489 1.323 0 .7-.269 1.258-.806 1.675-.537.413-1.26.62-2.168.62-.902 0-1.613-.19-2.134-.571-.517-.381-.781-.912-.791-1.592Z" fill="#fff"/><defs><clipPath id="a"><path fill="#fff" transform="translate(0 .5)" d="M0 0h210v21H0z"/></clipPath></defs></svg>