<?xml version="1.0" encoding="utf-8"?><svg width="100" height="96" viewBox="0 0 100 96" xmlns="http://www.w3.org/2000/svg" xmlns:xlink="http://www.w3.org/1999/xlink"><view id="svg-activity" viewBox="0 52 22 22"/><svg width="22" height="22" viewBox="-1 -1 22 22" y="52" xmlns="http://www.w3.org/2000/svg"><path d="M12.5 18.958h-5c-4.525 0-6.458-1.933-6.458-6.458v-5c0-4.525 1.933-6.458 6.458-6.458h5c4.525 0 6.458 1.933 6.458 6.458v5c0 4.525-1.933 6.458-6.458 6.458zm-5-16.666c-3.842 0-5.208 1.366-5.208 5.208v5c0 3.842 1.366 5.208 5.208 5.208h5c3.841 0 5.208-1.366 5.208-5.208v-5c0-3.842-1.366-5.208-5.208-5.208h-5z"/><path d="M6.108 12.7a.614.614 0 01-.383-.133.624.624 0 01-.117-.875l1.984-2.575a1.455 1.455 0 012.058-.258l1.525 1.2c.058.05.116.05.158.041.034 0 .092-.017.142-.083L13.4 7.533a.616.616 0 01.875-.108c.275.208.325.6.108.875l-1.925 2.483a1.422 1.422 0 01-.975.55 1.446 1.446 0 01-1.083-.3l-1.525-1.2a.183.183 0 00-.159-.041c-.033 0-.091.016-.141.083L6.592 12.45a.565.565 0 01-.484.25z"/></svg><view id="svg-arrow-down" viewBox="0 0 26 26"/><svg width="26" height="26" fill="none" viewBox="-1 -1 26 26" xmlns="http://www.w3.org/2000/svg"><path d="M12 16.8c-.7 0-1.4-.27-1.93-.8L3.55 9.48a.754.754 0 010-1.06c.29-.29.77-.29 1.06 0l6.52 6.52c.48.48 1.26.48 1.74 0l6.52-6.52c.29-.29.77-.29 1.06 0 .29.29.29.77 0 1.06L13.93 16c-.53.53-1.23.8-1.93.8z" fill="#fff"/></svg><view id="svg-download" viewBox="22 74 18 19"/><svg width="18" height="19" fill="none" viewBox="-1 -1 18 19" x="22" y="74" xmlns="http://www.w3.org/2000/svg"><path d="M8 15.667A7.173 7.173 0 01.833 8.5 7.173 7.173 0 018 1.333 7.173 7.173 0 0115.167 8.5 7.173 7.173 0 018 15.667zM8 2.333A6.174 6.174 0 001.833 8.5c0 3.4 2.767 6.167 6.167 6.167S14.167 11.9 14.167 8.5 11.4 2.333 8 2.333z" fill="#E81943"/><path d="M8 10.667a.504.504 0 01-.5-.5v-4c0-.274.227-.5.5-.5s.5.226.5.5v4c0 .273-.227.5-.5.5z" fill="#E81943"/><path d="M8 11.333a.495.495 0 01-.354-.146l-2-2a.503.503 0 010-.707.503.503 0 01.707 0L8 10.127 9.646 8.48a.503.503 0 01.707 0 .503.503 0 010 .707l-2 2c-.1.1-.227.146-.353.146z" fill="#E81943"/></svg><view id="svg-menu" viewBox="26 0 26 26"/><svg width="26" height="26" fill="none" viewBox="-1 -1 26 26" x="26" xmlns="http://www.w3.org/2000/svg"><path d="M21 7.75H3c-.41 0-.75-.34-.75-.75s.34-.75.75-.75h18c.41 0 .75.34.75.75s-.34.75-.75.75zM21 12.75H3c-.41 0-.75-.34-.75-.75s.34-.75.75-.75h18c.41 0 .75.34.75.75s-.34.75-.75.75zM21 17.75H3c-.41 0-.75-.34-.75-.75s.34-.75.75-.75h18c.41 0 .75.34.75.75s-.34.75-.75.75z" fill="#fff"/></svg><view id="svg-moon" viewBox="0 26 26 26"/><svg width="26" height="26" fill="none" viewBox="-1 -1 26 26" y="26" xmlns="http://www.w3.org/2000/svg"><path d="M12.46 22.75c-.17 0-.34 0-.51-.01-5.6-.25-10.28-4.76-10.67-10.26C.94 7.76 3.67 3.35 8.07 1.5c1.25-.52 1.91-.12 2.19.17.28.28.67.93.15 2.12a8.197 8.197 0 00-.68 3.35c.02 4.43 3.7 8.19 8.19 8.37.65.03 1.29-.02 1.91-.13 1.32-.24 1.87.29 2.08.63.21.34.45 1.07-.35 2.15-2.12 2.9-5.49 4.59-9.1 4.59zM2.77 12.37c.34 4.76 4.4 8.66 9.24 8.87 3.29.16 6.41-1.34 8.33-3.96.15-.21.22-.36.25-.44-.09-.01-.25-.02-.5.03-.73.13-1.49.18-2.24.15-5.28-.21-9.6-4.64-9.63-9.86 0-1.38.27-2.71.82-3.96.1-.22.12-.37.13-.45-.09 0-.25.02-.51.13-3.81 1.6-6.17 5.42-5.89 9.49z" fill="#fff"/></svg><view id="svg-note" viewBox="22 52 22 22"/><svg width="22" height="22" viewBox="-1 -1 22 22" x="22" y="52" xmlns="http://www.w3.org/2000/svg"><path d="M13.334 18.958H6.667c-2.517 0-3.958-1.441-3.958-3.958V6.875c0-2.625 1.333-3.958 3.958-3.958a.63.63 0 01.625.625 1.249 1.249 0 001.25 1.25h2.917c.691 0 1.25-.559 1.25-1.25a.63.63 0 01.625-.625c2.625 0 3.958 1.333 3.958 3.958V15c0 2.517-1.442 3.958-3.959 3.958zM6.125 4.183c-1.317.109-2.167.7-2.167 2.692V15c0 1.85.859 2.708 2.709 2.708h6.667c1.85 0 2.708-.858 2.708-2.708V6.875c0-1.992-.85-2.575-2.167-2.692a2.505 2.505 0 01-2.416 1.859H8.542a2.477 2.477 0 01-1.767-.734 2.518 2.518 0 01-.65-1.125z"/><path d="M11.459 6.042H8.542a2.477 2.477 0 01-1.767-.734 2.477 2.477 0 01-.733-1.766c0-1.375 1.125-2.5 2.5-2.5h2.917c.666 0 1.291.258 1.766.733.475.475.734 1.1.734 1.767 0 1.375-1.125 2.5-2.5 2.5zm-2.917-3.75a1.248 1.248 0 00-.883 2.133c.233.233.55.367.883.367h2.917a1.248 1.248 0 00.883-2.134 1.249 1.249 0 00-.883-.366H8.542zM10 11.458H6.667a.63.63 0 01-.625-.625.63.63 0 01.625-.625H10a.63.63 0 01.625.625.63.63 0 01-.625.625zM13.334 14.792H6.667a.63.63 0 01-.625-.625.63.63 0 01.625-.625h6.667a.63.63 0 01.625.625.63.63 0 01-.625.625z"/></svg><view id="svg-people" viewBox="44 52 22 22"/><svg width="22" height="22" viewBox="-1 -1 22 22" x="44" y="52" xmlns="http://www.w3.org/2000/svg"><path d="M15 6.592H14.89c-1.575-.05-2.75-1.267-2.75-2.767a2.78 2.78 0 012.775-2.775 2.785 2.785 0 012.775 2.775A2.772 2.772 0 0115.008 6.6c0-.008 0-.008-.008-.008zm-.084-4.3a1.526 1.526 0 00-.058 3.05.404.404 0 01.15 0 1.527 1.527 0 00-.092-3.05zM15.008 12.733c-.325 0-.65-.025-.975-.083a.625.625 0 11.217-1.233c1.025.175 2.108-.017 2.833-.5.392-.259.6-.584.6-.909 0-.325-.216-.641-.6-.9-.725-.483-1.825-.675-2.858-.491a.62.62 0 01-.725-.509.625.625 0 01.508-.725c1.359-.241 2.767.017 3.767.684.733.491 1.158 1.191 1.158 1.941 0 .742-.416 1.45-1.158 1.95-.758.5-1.742.775-2.767.775zM4.975 6.592h-.017a2.77 2.77 0 01-2.683-2.767A2.787 2.787 0 015.05 1.042a2.785 2.785 0 012.775 2.775A2.76 2.76 0 015.15 6.592l-.175-.625.058.625h-.058zm.083-1.25c.05 0 .092 0 .142.008.741-.033 1.391-.7 1.391-1.525A1.526 1.526 0 104.983 5.35c.008-.008.042-.008.075-.008zM4.966 12.733c-1.025 0-2.008-.275-2.766-.775-.734-.491-1.159-1.2-1.159-1.95 0-.741.425-1.45 1.159-1.941 1-.667 2.408-.925 3.766-.684a.625.625 0 01.509.725.619.619 0 01-.725.509c-1.033-.184-2.125.008-2.858.491-.392.259-.6.575-.6.9 0 .325.216.65.6.909.724.483 1.808.675 2.833.5a.625.625 0 11.217 1.233c-.325.058-.65.083-.976.083zM10 12.817H9.89c-1.575-.05-2.75-1.267-2.75-2.767a2.78 2.78 0 012.775-2.775 2.785 2.785 0 012.775 2.775 2.772 2.772 0 01-2.683 2.775c0-.008 0-.008-.008-.008zm-.084-4.3a1.526 1.526 0 00-.058 3.05.4.4 0 01.15 0 1.527 1.527 0 001.442-1.525c0-.834-.684-1.525-1.534-1.525zM10 18.967c-1 0-2-.259-2.775-.784-.734-.491-1.159-1.191-1.159-1.941 0-.742.417-1.459 1.159-1.95 1.558-1.034 4-1.034 5.55 0 .733.491 1.158 1.191 1.158 1.941 0 .742-.417 1.459-1.158 1.95C12 18.7 11 18.967 10 18.967zm-2.084-3.625c-.391.258-.6.583-.6.908 0 .325.217.642.6.9 1.125.758 3.034.758 4.159 0 .391-.258.6-.583.6-.908 0-.325-.217-.642-.6-.9-1.117-.759-3.025-.75-4.159 0z"/></svg><view id="svg-profile" viewBox="26 26 26 26"/><svg width="26" height="26" fill="none" viewBox="-1 -1 26 26" x="26" y="26" xmlns="http://www.w3.org/2000/svg"><path d="M12.12 13.53h-.17c-2.27-.07-3.97-1.84-3.97-4.02 0-2.22 1.81-4.03 4.03-4.03s4.03 1.81 4.03 4.03a4.014 4.014 0 01-3.89 4.02h-.03zM12 6.97c-1.4 0-2.53 1.14-2.53 2.53a2.52 2.52 0 002.43 2.53.84.84 0 01.23 0 2.535 2.535 0 002.4-2.53c0-1.39-1.13-2.53-2.53-2.53zM12 22.75c-2.69 0-5.26-1-7.25-2.82a.755.755 0 01-.24-.63c.13-1.19.87-2.3 2.1-3.12 2.98-1.98 7.81-1.98 10.78 0 1.23.83 1.97 1.93 2.1 3.12.03.24-.06.47-.24.63A10.71 10.71 0 0112 22.75zM6.08 19.1A9.208 9.208 0 0012 21.25c2.17 0 4.26-.76 5.92-2.15-.18-.61-.66-1.2-1.37-1.68-2.46-1.64-6.63-1.64-9.11 0-.71.48-1.18 1.07-1.36 1.68z" fill="#fff"/><path d="M12 22.75C6.07 22.75 1.25 17.93 1.25 12S6.07 1.25 12 1.25 22.75 6.07 22.75 12 17.93 22.75 12 22.75zm0-20C6.9 2.75 2.75 6.9 2.75 12S6.9 21.25 12 21.25s9.25-4.15 9.25-9.25S17.1 2.75 12 2.75z" fill="#fff"/></svg><view id="svg-routing" viewBox="78 0 22 22"/><svg width="22" height="22" viewBox="-1 -1 22 22" x="78" xmlns="http://www.w3.org/2000/svg"><path d="M4.558 8.958a2.374 2.374 0 01-1.65-.658C1.375 6.842.758 5.25 1.117 3.692c.425-1.834 2.033-2.65 3.441-2.65 1.409 0 3.025.825 3.442 2.65.358 1.558-.267 3.15-1.792 4.608a2.36 2.36 0 01-1.65.658zM2.333 3.975c-.316 1.392.609 2.625 1.442 3.417a1.14 1.14 0 001.575 0c.833-.792 1.758-2.025 1.433-3.425C6.5 2.733 5.408 2.292 4.567 2.292c-.85 0-1.942.441-2.234 1.683z"/><path d="M4.592 5.167a.836.836 0 01-.834-.834.83.83 0 01.834-.833H4.6c.458 0 .833.375.833.833a.838.838 0 01-.841.834zM15.408 18.958a2.409 2.409 0 01-1.658-.658c-1.542-1.458-2.167-3.05-1.8-4.617.425-1.825 2.042-2.65 3.458-2.65 1.417 0 3.034.825 3.459 2.65.358 1.559-.267 3.159-1.809 4.609-.458.45-1.05.666-1.65.666zm0-6.666c-.85 0-1.95.441-2.241 1.683-.325 1.392.608 2.633 1.441 3.425a1.153 1.153 0 001.592 0c.833-.792 1.767-2.025 1.442-3.417-.275-1.25-1.375-1.691-2.234-1.691z"/><path d="M15.442 15.167a.836.836 0 01-.834-.834.83.83 0 01.834-.833h.008c.458 0 .833.375.833.833a.843.843 0 01-.841.834zM10 16.458H7.767a2.262 2.262 0 01-2.142-1.483 2.277 2.277 0 01.633-2.533l6.659-5.825c.4-.35.408-.825.291-1.15-.125-.325-.441-.675-.975-.675H10a.63.63 0 01-.625-.625.63.63 0 01.625-.625h2.233c.967 0 1.809.583 2.142 1.483.342.9.092 1.892-.633 2.533l-6.659 5.825c-.4.35-.408.825-.291 1.15.125.325.441.675.975.675H10a.63.63 0 01.625.625.63.63 0 01-.625.625z"/><path d="M10 16.458H7.767a2.262 2.262 0 01-2.142-1.483 2.277 2.277 0 01.633-2.533l6.659-5.825c.4-.35.408-.825.291-1.15-.125-.325-.441-.675-.975-.675H10a.63.63 0 01-.625-.625.63.63 0 01.625-.625h2.233c.967 0 1.809.583 2.142 1.483.342.9.092 1.892-.633 2.533l-6.659 5.825c-.4.35-.408.825-.291 1.15.125.325.441.675.975.675H10a.63.63 0 01.625.625.63.63 0 01-.625.625z"/></svg><view id="svg-search-normal" viewBox="52 0 26 26"/><svg width="26" height="26" fill="none" viewBox="-1 -1 26 26" x="52" xmlns="http://www.w3.org/2000/svg"><path d="M11.5 21.75c-5.65 0-10.25-4.6-10.25-10.25S5.85 1.25 11.5 1.25s10.25 4.6 10.25 10.25-4.6 10.25-10.25 10.25zm0-19c-4.83 0-8.75 3.93-8.75 8.75s3.92 8.75 8.75 8.75 8.75-3.93 8.75-8.75-3.92-8.75-8.75-8.75zM22 22.75c-.19 0-.38-.07-.53-.22l-2-2a.754.754 0 010-1.06c.29-.29.77-.29 1.06 0l2 2c.29.29.29.77 0 1.06-.15.15-.34.22-.53.22z" fill="#000"/></svg><view id="svg-shopping" viewBox="52 26 26 26"/><svg width="26" height="26" fill="none" viewBox="-1 -1 26 26" x="52" y="26" xmlns="http://www.w3.org/2000/svg"><path d="M16.49 22.75H7.5c-1.72 0-3.01-.46-3.81-1.37-.8-.91-1.11-2.23-.9-3.94l.9-7.5c.26-2.21.82-4.19 4.72-4.19h7.2c3.89 0 4.45 1.98 4.72 4.19l.9 7.5c.2 1.71-.1 3.04-.9 3.94-.83.91-2.11 1.37-3.84 1.37zM8.4 7.25c-2.88 0-3.02 1.14-3.23 2.86l-.9 7.5c-.15 1.27.03 2.2.54 2.77.51.57 1.41.86 2.69.86h8.99c1.28 0 2.18-.29 2.69-.86.51-.57.69-1.5.54-2.77l-.9-7.5c-.21-1.73-.34-2.86-3.23-2.86H8.4z" fill="#fff"/><path d="M16 8.75c-.41 0-.75-.34-.75-.75V4.5c0-1.08-.67-1.75-1.75-1.75h-3c-1.08 0-1.75.67-1.75 1.75V8c0 .41-.34.75-.75.75s-.75-.34-.75-.75V4.5c0-1.91 1.34-3.25 3.25-3.25h3c1.91 0 3.25 1.34 3.25 3.25V8c0 .41-.34.75-.75.75zM20.41 17.78H8c-.41 0-.75-.34-.75-.75s.34-.75.75-.75h12.41c.41 0 .75.34.75.75s-.34.75-.75.75z" fill="#fff"/></svg><view id="svg-star" viewBox="78 22 22 22"/><svg width="22" height="22" viewBox="-1 -1 22 22" x="78" y="22" xmlns="http://www.w3.org/2000/svg"><path d="M14.717 18.892c-.442 0-1.009-.142-1.717-.559l-2.492-1.475c-.258-.15-.758-.15-1.008 0L7 18.333c-1.475.875-2.342.525-2.733.242-.384-.283-.984-1.008-.592-2.675l.592-2.558c.066-.267-.067-.725-.267-.925L1.933 10.35C.9 9.317.983 8.433 1.125 8c.142-.433.592-1.2 2.025-1.442l2.658-.441c.25-.042.609-.309.717-.534L8 2.642C8.667 1.3 9.542 1.1 10 1.1c.458 0 1.333.2 2 1.542l1.467 2.933c.116.225.475.492.725.533l2.658.442c1.442.242 1.892 1.008 2.025 1.442.133.433.217 1.316-.808 2.35L16 12.417c-.2.2-.325.65-.267.925l.592 2.558c.383 1.667-.208 2.392-.592 2.675-.208.15-.541.317-1.016.317zM10 15.492c.408 0 .817.1 1.142.291l2.491 1.475c.725.434 1.184.434 1.359.309.175-.125.3-.567.116-1.384l-.591-2.558c-.159-.692.1-1.583.6-2.092l2.066-2.066c.409-.409.592-.809.509-1.084-.092-.275-.475-.5-1.042-.591l-2.658-.442c-.642-.108-1.342-.625-1.634-1.208l-1.466-2.934c-.267-.533-.6-.85-.892-.85-.292 0-.625.317-.883.85L7.642 6.142c-.292.583-.992 1.1-1.634 1.208l-2.65.442c-.566.091-.95.316-1.041.591-.092.275.1.684.508 1.084l2.067 2.066c.5.5.758 1.4.6 2.092L4.9 16.183c-.192.825-.058 1.259.117 1.384.175.125.625.116 1.358-.309l2.492-1.475c.316-.191.725-.291 1.133-.291z"/></svg><view id="svg-video-play" viewBox="78 44 22 22"/><svg width="22" height="22" viewBox="-1 -1 22 22" x="78" y="44" xmlns="http://www.w3.org/2000/svg"><path d="M12.5 18.958h-5c-4.525 0-6.458-1.933-6.458-6.458v-5c0-4.525 1.933-6.458 6.458-6.458h5c4.525 0 6.458 1.933 6.458 6.458v5c0 4.525-1.933 6.458-6.458 6.458zm-5-16.666c-3.842 0-5.208 1.366-5.208 5.208v5c0 3.842 1.366 5.208 5.208 5.208h5c3.841 0 5.208-1.366 5.208-5.208v-5c0-3.842-1.366-5.208-5.208-5.208h-5z"/><path d="M17.9 6.55H2.1a.624.624 0 110-1.25h15.8a.624.624 0 110 1.25z"/><path d="M7.1 6.433a.63.63 0 01-.625-.625v-4.05a.63.63 0 01.625-.625.63.63 0 01.625.625v4.05a.63.63 0 01-.625.625zM12.9 6.058a.63.63 0 01-.625-.625V1.758a.63.63 0 01.625-.625.63.63 0 01.625.625v3.675c0 .35-.275.625-.625.625zM9.242 15.1c-.3 0-.584-.075-.842-.217-.567-.333-.9-1-.9-1.841v-2c0-.842.333-1.517.908-1.85.575-.334 1.325-.284 2.05.141l1.733 1c.725.417 1.15 1.042 1.15 1.709 0 .666-.425 1.291-1.158 1.708l-1.733 1c-.4.233-.817.35-1.208.35zm.008-4.875a.439.439 0 00-.217.05c-.175.1-.283.383-.283.767v2c0 .375.108.658.283.766.175.1.475.05.8-.141l1.733-1c.325-.192.525-.425.525-.625s-.191-.434-.524-.625l-1.734-1c-.216-.125-.425-.192-.583-.192z"/></svg><view id="svg-video-square" viewBox="0 74 22 22"/><svg width="22" height="22" viewBox="-1 -1 22 22" y="74" xmlns="http://www.w3.org/2000/svg"><path d="M12.5 18.958h-5c-4.525 0-6.458-1.933-6.458-6.458v-5c0-4.525 1.933-6.458 6.458-6.458h5c4.525 0 6.458 1.933 6.458 6.458v5c0 4.525-1.933 6.458-6.458 6.458zm-5-16.666c-3.842 0-5.208 1.366-5.208 5.208v5c0 3.842 1.366 5.208 5.208 5.208h5c3.841 0 5.208-1.366 5.208-5.208v-5c0-3.842-1.366-5.208-5.208-5.208h-5z"/><path d="M8.966 13.642c-.35 0-.675-.084-.966-.25-.667-.384-1.05-1.167-1.05-2.159V8.767c0-.984.383-1.775 1.05-2.159.666-.383 1.533-.325 2.392.175l2.141 1.234c.85.491 1.342 1.216 1.342 1.983 0 .767-.492 1.492-1.342 1.983l-2.141 1.234c-.484.283-.976.425-1.425.425zm.009-6.034a.63.63 0 00-.342.084c-.266.158-.425.55-.425 1.075v2.466c0 .525.15.917.425 1.075.267.159.684.092 1.142-.175l2.141-1.233c.459-.267.717-.592.717-.9 0-.308-.258-.642-.716-.9L9.774 7.867c-.3-.175-.575-.259-.8-.259z"/></svg></svg>